<?xml version="1.0" encoding="UTF-8"?>
<!DOCTYPE svg PUBLIC "-//W3C//DTD SVG 1.1//EN" "http://www.w3.org/Graphics/SVG/1.1/DTD/svg11.dtd">
<!-- Creator: CorelDRAW -->
<svg xmlns="http://www.w3.org/2000/svg" xml:space="preserve" width="88.6109mm" height="20.6476mm" version="1.1" shape-rendering="geometricPrecision" text-rendering="geometricPrecision" image-rendering="optimizeQuality" fill-rule="evenodd" clip-rule="evenodd"
viewBox="0 0 4743.18 1105.23"
 xmlns:xlink="http://www.w3.org/1999/xlink"
 xmlns:xodm="http://www.corel.com/coreldraw/odm/2003">
 <g id="Layer_x0020_1">
  <metadata id="CorelCorpID_0Corel-Layer"/>
  <g id="_105553204096064">
   <g>
    <path fill="white" fill-rule="nonzero" d="M1372.28 647.18c-0.16,3.14 -0.48,6.28 -0.97,9.42 -0.32,1.93 -0.72,3.86 -1.12,5.79 -0.32,1.53 -0.72,2.98 -1.21,4.51 -0.4,1.69 -0.96,3.3 -1.53,4.91 -0.49,1.53 -1.05,3.14 -1.69,4.67 -0.65,1.69 -1.37,3.38 -2.17,5.07 -21.81,46.84 -77.43,67.04 -124.19,45.24 -46.12,-21.49 -66.48,-75.98 -46.03,-122.42 0.24,-0.65 0.48,-1.21 0.8,-1.85 0.24,-0.48 0.4,-0.97 0.72,-1.37 11.84,-24.55 33.08,-41.53 57.39,-48.69 1.69,-0.48 3.46,-0.96 5.24,-1.36 1.77,-0.4 3.54,-0.73 5.31,-1.05 1.61,-0.32 3.14,-0.48 4.75,-0.72 2.09,-0.24 4.19,-0.4 6.28,-0.48 3.38,-0.24 6.68,-0.24 10.06,-0.08 3.06,0.16 6.12,0.4 9.17,0.97 2.09,0.32 4.11,0.72 6.2,1.2 6.2,1.45 12.31,3.62 18.27,6.36 28.09,13.12 47,38.23 52.96,66.4 0.4,1.85 0.72,3.7 0.97,5.63 0.88,5.87 1.12,11.83 0.81,17.87l-0.01 -0.01z"/>
    <path fill="white" fill-rule="nonzero" d="M1697.84 837.77c-94.25,202.18 -316.95,304.39 -525.97,255.06 -30.26,-7.08 -60.28,-17.39 -89.5,-31.07 -28.81,-13.44 -55.54,-29.38 -80.16,-47.65l45.31 -97.23 0.08 0 36.46 -78.23 91.99 -197.43c-0.24,39.04 21.81,76.46 59.4,94.01 37.59,17.55 80.4,10.38 110.02,-14.89l-91.75 196.79c112.44,9.9 224.23,-50.3 274.62,-158.4 50.47,-108.01 24.71,-232.52 -55.21,-312.2 -3.22,-3.3 -6.61,-6.52 -10.06,-9.5 -4.59,-90.07 -32.6,-173.93 -78.15,-245.72 30.1,7.16 59.8,17.46 88.86,30.98 29.3,13.6 56.42,29.94 81.37,48.45 172.16,128.46 236.95,364.76 142.71,567.02l-0.01 0.01z"/>
    <path fill="white" fill-rule="nonzero" d="M875.04 413.94c16.5,-26.56 45.87,-44.11 79.36,-44.11 14.17,0 27.61,3.14 39.68,8.77 0.32,0.24 0.72,0.4 1.12,0.56 31.15,15.13 52.64,47.16 52.64,84.11 0,12.96 -2.57,25.19 -7.32,36.38 -0.65,1.61 -1.37,3.06 -2.09,4.59l-1.29 2.82 -0.16 0.32 -17.31 37.19 0 0.24 -0.24 0.32 -90.14 193.33 -12.4 26.48 -32.03 68.49 -4.35 9.42c-2.9,5.88 -5.8,11.75 -8.93,17.39 -0.32,0.56 -0.65,1.21 -1.05,1.77 -1.04,1.93 -2.01,3.86 -3.06,5.72 -8.53,15.29 -17.95,30.1 -28.25,44.27 -6.92,9.66 -14.25,18.99 -21.89,28.01 -1.29,1.61 -2.58,3.14 -3.95,4.67 -1.85,2.25 -3.78,4.35 -5.72,6.52 -1.61,1.69 -3.14,3.38 -4.75,5.07 -84.51,91.51 -205.72,148.9 -339.89,148.9 -67.37,0 -131.35,-14.49 -189.22,-40.4l-11.43 -5.32c-155.09,-74.93 -262.38,-233.9 -262.38,-417.4 0,-67.37 14.49,-131.35 40.4,-189.22l5.31 -11.43c61.89,-128.22 181.09,-223.75 324.2,-253.05l0 0c27.61,-5.72 56.1,-8.85 85.23,-9.34 2.65,0 5.24,0 7.89,0 4.99,0 9.82,0 14.73,0.24l0 0.01c17.14,0.56 34.12,2.01 50.87,4.42 14,1.93 27.77,4.59 41.37,7.81 1.29,0.24 2.49,0.56 3.78,0.88l0 0c0,0 0.4,0.16 0.72,0.24 1.12,0.32 2.33,0.56 3.46,0.97l-0.01 0c0.72,-1.05 1.37,-1.93 2.09,-2.98 0.65,-0.96 1.37,-1.85 2.09,-2.9 0.16,-0.24 0.32,-0.49 0.48,-0.73 2.9,-3.86 5.8,-7.72 8.77,-11.43 2.42,-3.06 4.83,-5.87 7.25,-8.85 0.32,-0.49 0.8,-0.97 1.2,-1.45 2.25,-2.65 4.51,-5.31 6.84,-7.88 0.65,-0.81 1.37,-1.61 2.09,-2.33 2.01,-2.33 4.19,-4.67 6.36,-7.01 3.54,-3.78 7.08,-7.56 10.71,-11.1 2.65,-2.74 5.39,-5.4 8.13,-7.97 4.19,-4.03 8.45,-7.96 12.72,-11.75 2.25,-2.01 4.43,-3.95 6.76,-5.87 7.16,-6.2 14.57,-12.08 22.21,-17.87 3.46,-2.57 6.92,-5.15 10.46,-7.72 3.06,-2.17 6.12,-4.27 9.17,-6.36 1.69,-1.2 3.54,-2.41 5.31,-3.54 2.49,-1.69 5.07,-3.3 7.57,-4.91 0.24,-0.17 0.4,-0.33 0.64,-0.33 3.06,-1.93 6.12,-3.86 9.17,-5.72 4.35,-2.57 8.85,-5.15 13.28,-7.64 3.7,-2.01 7.33,-3.95 11.11,-5.88 0.33,-0.16 0.65,-0.32 0.97,-0.48 7.8,-4.03 15.77,-7.8 23.91,-11.35 4.1,-1.77 8.21,-3.62 12.39,-5.24 12,-4.99 24.31,-9.34 36.78,-13.28 0.4,0 0.88,-0.24 1.2,-0.32 4.11,-1.21 8.21,-2.41 12.4,-3.62 0.56,-0.24 1.29,-0.32 1.93,-0.56 3.46,-0.97 6.92,-1.77 10.46,-2.65 0.97,-0.33 1.93,-0.49 2.98,-0.81 3.95,-0.97 7.89,-1.77 11.83,-2.65 4.43,-0.97 9.01,-1.85 13.52,-2.65 4.43,-0.88 9.01,-1.61 13.6,-2.33 4.99,-0.81 9.98,-1.45 15.13,-2.01 4.11,-0.48 8.29,-0.96 12.48,-1.28 4.35,-0.4 8.85,-0.81 13.28,-1.05 0.32,0 0.56,0 0.96,0 4.35,-0.32 8.7,-0.48 13.12,-0.64l1.04 0c4.59,-0.16 9.17,-0.24 13.84,-0.24l0.32 0c4.27,0 8.53,0 12.8,0.24 4.27,0 8.45,0.32 12.72,0.48 3.22,0.16 6.52,0.33 9.74,0.65 2.33,0.16 4.83,0.32 7.16,0.64 2.98,0.24 5.87,0.49 8.77,0.89 4.03,0.4 7.96,0.96 11.92,1.53 0.4,0 0.88,0 1.36,0.16 3.06,0.4 6.12,0.88 9.09,1.36 2.66,0.4 5.24,0.89 7.89,1.37 3.54,0.65 7.08,1.29 10.63,2.01 0.97,0.16 1.85,0.32 2.74,0.56 2.9,0.56 5.71,1.21 8.53,1.85 0.72,0.16 1.53,0.32 2.17,0.48 3.22,0.81 6.44,1.61 9.66,2.33 3.7,0.97 7.4,1.93 11.11,3.06 7.32,2.01 14.48,4.35 21.73,6.77 1.69,0.56 3.46,1.12 5.15,1.77 2.49,0.89 4.99,1.69 7.4,2.66 3.7,1.36 7.48,2.82 11.11,4.35 3.06,1.2 6.03,2.41 9.01,3.7 2.49,1.05 5.07,2.17 7.57,3.3 1.04,0.4 2.09,0.88 3.06,1.37 1.12,0.48 2.25,1.04 3.3,1.53 0.4,0.24 0.96,0.4 1.53,0.73 0.49,0.24 1.05,0.48 1.53,0.72 2.25,1.04 4.43,2.09 6.6,3.22 2.01,0.97 4.03,1.93 5.96,3.06 6.68,3.38 13.2,6.92 19.72,10.71 3.06,1.69 6.19,3.62 9.26,5.48 3.78,2.33 7.65,4.67 11.35,7.08 5.71,3.7 11.43,7.56 16.98,11.51 6.2,4.35 12.24,8.93 18.11,13.6 2.82,2.25 5.64,4.43 8.37,6.76 2.82,2.25 5.48,4.51 8.21,6.92 2.9,2.41 5.72,5.07 8.61,7.65 5.56,4.99 10.87,10.06 16.1,15.37 2.58,2.57 5.15,5.23 7.73,7.96 2.57,2.65 5.07,5.4 7.56,8.13 5.07,5.47 9.9,11.11 14.57,16.82 2.25,2.74 4.43,5.48 6.68,8.29 0.16,0.16 0.32,0.32 0.4,0.56 49.74,63.42 83.38,139.89 94.65,223.51 -6.03,-3.38 -12.15,-6.51 -18.51,-9.5 -29.46,-13.76 -60.12,-21.81 -90.71,-24.63 -20.52,-1.93 -41.05,-1.53 -61.17,1.13 -9.17,1.12 -18.35,2.9 -27.36,4.99 -0.57,-1.69 -1.13,-3.22 -1.77,-4.83 -0.72,-2.09 -1.53,-4.19 -2.33,-6.28 -0.4,-1.2 -0.97,-2.49 -1.53,-3.7 -1.12,-2.9 -2.33,-5.72 -3.7,-8.61 -0.24,-0.65 -0.48,-1.21 -0.88,-1.85 -0.97,-2.33 -2.17,-4.67 -3.3,-7.01 -1.04,-2.33 -2.33,-4.59 -3.54,-6.84 -0.72,-1.61 -1.61,-3.06 -2.41,-4.51 -0.65,-1.2 -1.37,-2.41 -2.09,-3.7 -1.45,-2.66 -3.06,-5.24 -4.67,-7.81 -0.72,-1.2 -1.45,-2.33 -2.25,-3.54 -1.28,-2.09 -2.57,-4.11 -4.03,-6.04 -1.04,-1.69 -2.25,-3.3 -3.46,-4.99 -3.86,-5.55 -7.97,-10.94 -12.48,-16.18 -1.2,-1.61 -2.49,-3.14 -3.94,-4.75 -1.69,-2.01 -3.46,-3.94 -5.24,-5.87 -1.12,-1.29 -2.33,-2.58 -3.7,-3.86 -1.45,-1.61 -3.06,-3.22 -4.59,-4.75 -1.53,-1.61 -3.06,-3.14 -4.75,-4.59 -3.06,-3.06 -6.2,-5.8 -9.42,-8.61 -2.65,-2.33 -5.31,-4.59 -8.13,-6.68 -2.49,-2.17 -5.07,-4.19 -7.73,-6.12 -0.8,-0.64 -1.53,-1.2 -2.33,-1.69 -2.82,-2.17 -5.72,-4.19 -8.53,-6.12 -0.24,-0.16 -0.32,-0.32 -0.48,-0.32 -3.54,-2.33 -7.08,-4.59 -10.71,-6.84 -2.65,-1.69 -5.4,-3.22 -8.21,-4.75 -0.97,-0.56 -1.85,-1.12 -2.9,-1.69 0.24,-0.16 0.4,-0.24 0.72,-0.32l-19.16 -8.93c-10.22,-4.59 -20.76,-8.61 -31.63,-12 -1.77,-0.56 -3.62,-1.12 -5.39,-1.61 -2.9,-0.89 -5.72,-1.69 -8.61,-2.33 -1.85,-0.48 -3.78,-1.05 -5.72,-1.37 -1.85,-0.48 -3.78,-0.88 -5.72,-1.28 -7.08,-1.53 -14.33,-2.74 -21.65,-3.62 -2.26,-0.32 -4.51,-0.56 -6.77,-0.81 -1.85,-0.24 -3.7,-0.32 -5.55,-0.48 -2.49,-0.24 -4.99,-0.4 -7.49,-0.48 -5.07,-0.33 -10.06,-0.4 -15.13,-0.4 -12.31,0 -24.47,0.8 -36.38,2.33 -6.44,0.89 -12.96,1.93 -19.24,3.22 -7.24,1.53 -14.4,3.3 -21.41,5.31 -3.94,1.12 -7.88,2.41 -11.83,3.7 -4.35,1.53 -8.53,3.06 -12.79,4.67 -4.03,1.69 -7.97,3.3 -11.92,5.07 -2.25,1.05 -4.35,2.01 -6.52,3.06 -3.86,1.86 -7.72,3.78 -11.43,5.88 -0.16,0 -0.32,0.16 -0.48,0.32 -3.86,2.17 -7.73,4.35 -11.59,6.68 -5.56,3.38 -10.95,7 -16.18,10.63 -12.87,9.17 -24.95,19.39 -36.06,30.67 -3.06,3.06 -6.11,6.36 -9.09,9.58 -1.93,2.25 -3.94,4.35 -5.79,6.68 -4.11,4.83 -8.05,9.82 -11.83,15.05 -1.45,1.93 -2.9,3.95 -4.27,5.96 -4.03,5.72 -7.8,11.67 -11.35,17.71 -1.77,3.06 -3.54,6.04 -5.15,9.17 -1.69,3.06 -3.3,6.2 -4.83,9.34l-0.72 1.45 -2.98 6.36 -1.04 2.33 -43.79 93.85 -7.08 15.21 -101.25 217.07 -2.33 4.99c-7.4,14.89 -18.6,27.6 -32.52,36.7 -14.65,9.74 -32.35,15.45 -51.34,15.45 -51.6,0 -93.44,-41.85 -93.44,-93.44 0,-12.87 2.57,-25.27 7.32,-36.38 0.72,-1.69 1.45,-3.3 2.25,-4.91l65.68 -140.93 43.3 -92.88c-8.29,-0.81 -16.66,-1.13 -25.11,-1.13 -2.98,0 -5.96,0 -8.93,0.24 -23.75,0.72 -46.68,4.43 -68.49,10.87 -75.57,22.05 -137.79,75.66 -171.43,145.52l-3.06 6.35c-15.61,34.61 -24.3,72.92 -24.3,113.24 0,111.8 66.88,208.38 162.66,251.76 34.69,15.69 73.08,24.47 113.48,24.47 57.55,0 111.07,-17.71 155.34,-48.05 4.75,-3.14 9.34,-6.51 13.85,-10.06 0.48,-0.32 1.04,-0.81 1.53,-1.21 1.21,-0.88 2.33,-1.85 3.54,-2.9 11.03,-8.85 21.17,-18.51 30.67,-28.97l-0.01 0.01c29.7,-32.28 47.57,-72.28 79.52,-141.41 3.86,-8.45 7.96,-17.15 12.31,-26.48l87.89 -188.34 0.16 -0.32 0.16 -0.4 20.04 -42.9 6.92 -13.29 0.24 -0.07z"/>
    <path fill="white" fill-rule="nonzero" d="M1363.59 681.55c-21.81,46.84 -77.43,67.04 -124.19,45.23 -46.76,-21.81 -67.04,-77.43 -45.23,-124.27 21.81,-46.76 77.42,-66.96 124.27,-45.15 46.76,21.81 67.04,77.43 45.15,124.19z"/>
    <path fill="white" fill-rule="nonzero" d="M1279.08 548.59c-1.69,0.08 -3.46,0.16 -5.23,0.24 3.38,-0.24 6.68,-0.24 10.06,-0.08 -1.61,-0.08 -3.22,-0.16 -4.83,-0.16l0.01 0z"/>
   </g>
   <g>
    <g>
     <g>
      <path fill="white" fill-rule="nonzero" d="M3310.13 123.46c-1.12,0 -2.33,0 -3.54,0l7 0c-1.12,0 -2.33,0 -3.46,0z"/>
      <path fill="white" fill-rule="nonzero" d="M3285.5 563.16c0,-43.46 8.05,-83.95 24.31,-121.38 16.18,-37.42 38.39,-70.26 66.56,-98.43 28.17,-28.17 61.25,-50.39 99.16,-66.56 37.91,-16.18 78.15,-24.31 120.65,-24.31 42.5,0 83.94,8.13 121.37,24.31 37.43,16.18 70.51,38.4 99.16,66.56 28.65,28.25 51.11,61.01 67.28,98.43 16.18,37.43 24.3,77.91 24.3,121.38 0,43.46 -8.13,82.74 -24.3,120.65 -16.18,37.91 -38.64,71.23 -67.28,99.88 -28.65,28.65 -61.73,51.11 -99.16,67.28 -37.43,16.18 -77.91,24.31 -121.37,24.31 -43.46,0 -82.74,-8.05 -120.65,-24.31 -37.91,-16.18 -70.99,-38.56 -99.16,-67.28 -28.25,-28.65 -50.39,-61.89 -66.56,-99.88 -16.18,-37.91 -24.31,-78.15 -24.31,-120.65zm122.02 0c0,25.92 4.83,50.38 14.57,73.48 9.74,23.1 23.1,43.22 40.24,60.37 17.06,17.15 37.19,30.5 60.36,40.24 23.1,9.74 47.65,14.57 73.48,14.57 25.83,0 50.38,-4.83 73.48,-14.57 23.1,-9.74 43.22,-23.1 60.37,-40.24 17.15,-17.15 30.5,-37.19 40.24,-60.37 9.74,-23.1 14.57,-47.65 14.57,-73.48 0,-25.84 -4.83,-50.15 -14.57,-72.84 -9.74,-22.62 -23.1,-42.5 -40.24,-59.64 -17.15,-17.06 -37.27,-30.51 -60.37,-40.24 -23.1,-9.74 -47.65,-14.57 -73.48,-14.57 -25.84,0 -50.39,4.83 -73.48,14.57 -23.1,9.74 -43.22,23.1 -60.36,40.24 -17.15,17.15 -30.51,37.03 -40.24,59.64 -9.74,22.7 -14.57,46.92 -14.57,72.84z"/>
      <g>
       <path fill="white" fill-rule="nonzero" d="M2631.31 202.5c-6.51,15.21 -9.74,31.39 -9.74,48.69 0,17.31 3.3,33.65 9.74,49.1 6.44,15.45 15.38,28.89 26.88,40.32 11.35,11.43 24.87,20.36 40.24,26.88 15.38,6.52 31.8,9.74 49.1,9.74l250.47 0c34.05,0 66.16,6.52 96.51,19.4 30.35,12.96 56.74,30.74 79.28,53.28 15.21,15.21 28.33,32.12 39.12,50.79l-0.01 0c0,0 0,0.17 0,0.17 5.15,8.85 9.82,18.11 14.01,27.77 12.96,29.86 19.39,62.22 19.39,96.98 0,34.77 -6.44,66.16 -19.39,96.51 -4.43,10.22 -9.26,20.04 -14.81,29.46 0,0 0,0.08 -0.07,0.16 -10.63,18.44 -23.42,35.17 -38.31,50.23 -22.62,22.94 -48.94,40.88 -79.28,53.76 -5.15,2.25 -10.3,4.27 -15.61,6.03 -25.67,8.94 -52.64,13.36 -80.89,13.36l-499.18 0 0 -123.46 499.17 0c17.31,0 33.72,-3.22 49.1,-9.74 15.45,-6.52 28.9,-15.45 40.24,-26.88 11.43,-11.43 20.44,-24.87 26.88,-40.32 6.52,-15.38 9.74,-31.8 9.74,-49.1 0,-17.31 -3.3,-33.48 -9.74,-48.69 -6.44,-15.13 -15.37,-28.41 -26.88,-39.84 -11.35,-11.43 -24.87,-20.36 -40.24,-26.88 -13.28,-5.56 -27.36,-8.77 -42.01,-9.5 -0.89,0 -1.69,-0.07 -2.65,-0.16 -0.33,0 -0.65,0 -0.89,0 -1.2,0 -2.41,0 -3.54,0 -1.13,0 -2.33,0 -3.46,0l-252.33 0c-26.32,-0.56 -51.51,-4.99 -75.58,-13.36 -5.31,-1.77 -10.46,-3.78 -15.61,-6.03 -30.34,-12.96 -56.74,-30.83 -79.28,-53.76 -14.89,-15.13 -27.77,-31.88 -38.31,-50.23 0,0 0,-0.07 -0.08,-0.16 -5.47,-9.42 -10.38,-19.24 -14.81,-29.46 -12.96,-30.26 -19.4,-62.46 -19.4,-96.51 0,-34.04 6.44,-67.12 19.4,-96.98 4.19,-9.66 8.85,-18.92 14,-27.77 0,0 0.08,-0.17 0.08,-0.17 10.87,-18.67 23.91,-35.57 39.12,-50.78 22.62,-22.54 48.94,-40.33 79.28,-53.28 30.26,-12.87 62.46,-19.39 96.51,-19.39l499.17 -0.01 0 123.46 -495.63 0c-1.12,0 -2.33,0 -3.46,0 -1.13,0 -2.33,0 -3.54,0 -1.2,0 -2.41,0.08 -3.54,0.17 -14.73,0.72 -28.73,3.94 -42.01,9.5 -15.45,6.52 -28.89,15.45 -40.24,26.88 -11.43,11.43 -20.44,24.71 -26.88,39.84l-0.01 0z"/>
       <path fill="white" fill-rule="nonzero" d="M3002.51 500.62l-254.98 0c-1.77,0 -3.54,0 -5.32,0l252.33 0c1.12,0 2.33,0 3.46,0 1.13,0 2.33,0 3.54,0 0.32,0 0.64,0 0.88,0l0.08 0z"/>
      </g>
      <path fill="white" fill-rule="nonzero" d="M4189.75 138.03c-23.1,9.74 -43.22,23.1 -60.36,40.24 -17.15,17.15 -30.51,37.03 -40.24,59.64 -9.74,22.7 -14.57,46.92 -14.57,72.84l0 63.82 249.67 0 0 123.46 -249.67 0 0 374.5 -123.46 0 0 -561.71c0,-43.46 8.05,-83.94 24.3,-121.37 16.18,-37.43 38.64,-70.26 67.29,-98.43 28.65,-28.17 61.97,-50.39 99.88,-66.56 37.91,-16.18 78.15,-24.31 120.65,-24.31l61.01 0 0 123.46 -61.01 0c-25.92,0 -50.38,4.83 -73.48,14.57l0 -0.16z"/>
      <path fill="white" fill-rule="nonzero" d="M4743.18 749l0 123.46 -61.01 0c-42.58,0 -82.74,-8.05 -120.65,-24.3 -37.91,-16.18 -71.23,-38.64 -99.88,-67.28 -28.65,-28.65 -51.11,-61.97 -67.28,-99.88 -16.18,-37.91 -24.31,-78.15 -24.31,-120.65l0 -560.34 123.46 0 0 374.5 249.67 0 0 123.47 -249.67 0 0 62.37c0,25.92 4.83,50.39 14.57,73.48 9.74,23.1 23.1,43.22 40.24,60.36 17.06,17.15 37.19,30.51 60.36,40.24 23.1,9.74 47.65,14.57 73.48,14.57l61.01 0z"/>
     </g>
     <polygon fill="white" fill-rule="nonzero" points="2255.53,591.81 2493.12,591.81 2493.12,654.91 2255.53,654.91 "/>
     <g>
      <path fill="#FFCE09" fill-rule="nonzero" d="M2183.33 326.37c0,-40 -31.23,-73.88 -72.6,-73.88 -38.63,0 -70.59,35.9 -70.59,73.24 0,42.01 29.86,75.26 72.6,75.26 40,0 70.59,-35.25 70.59,-74.61z"/>
      <path fill="#FFCE09" fill-rule="nonzero" d="M2252.87 820.47c-50.15,19.08 -90.23,17.06 -117.03,10.71 -18.19,-2.25 -30.26,-8.13 -38.31,-15.29l-0.08 0c-16.02,-14.49 -15.86,-33.96 -15.86,-40.16 0,-8.13 4.35,-28.41 6.36,-36.54l70.51 -249.74c0.72,-2.74 5.39,-20.37 5.39,-23.1 0,-5.4 -0.64,-8.77 -6.12,-8.77 -4.1,0 -10.86,2.74 -14.89,4.75 -31.15,10.22 -98.35,16.98 -132.24,16.98l-25.75 0c-1.37,7.48 -5.4,18.99 -5.4,26.39 0,18.35 31.23,4.03 31.23,33.24 0,4.75 -0.72,8.13 -2.74,13.6l-37.51 141.74c-4.11,16.9 -9.26,36.7 -10.14,53.6 -5.31,102.54 82.5,122.66 121.46,126.36 44.83,4.27 108.09,-4.35 141.73,-16.34 10.95,-3.86 20.36,-7.72 29.46,-11.99l0 -25.44 -0.07 0.01z"/>
     </g>
    </g>
    <g>
     <path fill="white" fill-rule="nonzero" d="M1987.27 1081.08l64.63 0 0 22.05 -92 0 0 -118.8 89.75 0 0 22.06 -62.46 0 0 74.69 0.09 0zm-2.01 -49.02l57.15 0 0 21.57 -57.15 0 0 -21.57z"/>
     <polygon fill="white" fill-rule="nonzero" points="2073.87,1103.13 2073.87,984.33 2096.57,984.33 2166.67,1069.89 2155.64,1069.89 2155.64,984.34 2182.76,984.33 2182.76,1103.13 2159.99,1103.13 2089.89,1017.66 2100.91,1017.66 2100.91,1103.13 2073.79,1103.13 "/>
     <path fill="white" fill-rule="nonzero" d="M2268.24 1105.15c-9.42,0 -18.03,-1.53 -26,-4.51 -7.96,-2.98 -14.73,-7.24 -20.52,-12.79 -5.8,-5.56 -10.3,-12.08 -13.52,-19.48 -3.22,-7.4 -4.83,-15.69 -4.83,-24.63 0,-8.93 1.61,-17.15 4.83,-24.63 3.22,-7.49 7.8,-13.92 13.68,-19.48 5.87,-5.55 12.8,-9.82 20.68,-12.8 7.89,-2.98 16.66,-4.51 26.16,-4.51 10.55,0 19.96,1.77 28.41,5.24 8.45,3.54 15.53,8.61 21.33,15.29l-17.46 16.26c-4.43,-4.59 -9.17,-8.05 -14.24,-10.22 -5.07,-2.17 -10.71,-3.3 -16.82,-3.3 -5.64,0 -10.87,0.97 -15.61,2.82 -4.75,1.85 -8.85,4.51 -12.32,7.89 -3.46,3.38 -6.11,7.4 -7.96,12.07 -1.85,4.67 -2.82,9.82 -2.82,15.45 0,5.64 0.96,10.46 2.82,15.21 1.85,4.67 4.51,8.77 7.96,12.16 3.46,3.38 7.49,6.03 12.24,7.96 4.75,1.93 9.9,2.9 15.53,2.9 5.63,0 10.71,-0.89 15.86,-2.74 5.15,-1.77 10.14,-4.83 15.05,-9.01l15.61 19.88c-6.61,4.99 -14.09,8.77 -22.54,11.27 -8.45,2.49 -16.98,3.78 -25.44,3.78l-0.08 -0.08zm22.94 -18.68l0 -44.59 25.11 0 0 48.21 -25.11 -3.54 0 -0.09z"/>
     <path fill="white" fill-rule="nonzero" d="M2326.11 1103.13l52.79 -118.8 27.12 0 53.28 118.8 -28.81 0 -43.63 -104.87 11.03 0 -43.62 104.87 -28.17 0zm26.64 -25.43l6.92 -20.85 61.41 0 7.17 20.85 -75.5 0z"/>
     <path fill="white" fill-rule="nonzero" d="M2527.33 1105.15c-9.42,0 -18.03,-1.53 -26,-4.51 -7.96,-2.98 -14.73,-7.24 -20.52,-12.79 -5.8,-5.56 -10.3,-12.08 -13.52,-19.48 -3.22,-7.4 -4.83,-15.69 -4.83,-24.63 0,-8.93 1.61,-17.15 4.83,-24.63 3.22,-7.49 7.8,-13.92 13.68,-19.48 5.87,-5.55 12.8,-9.82 20.69,-12.8 7.88,-2.98 16.66,-4.51 26.15,-4.51 10.55,0 19.96,1.77 28.41,5.24 8.45,3.54 15.53,8.61 21.33,15.29l-17.46 16.26c-4.43,-4.59 -9.17,-8.05 -14.24,-10.22 -5.07,-2.17 -10.71,-3.3 -16.82,-3.3 -5.64,0 -10.87,0.97 -15.61,2.82 -4.75,1.85 -8.85,4.51 -12.32,7.89 -3.46,3.38 -6.11,7.4 -7.96,12.07 -1.85,4.67 -2.82,9.82 -2.82,15.45 0,5.64 0.96,10.46 2.82,15.21 1.85,4.67 4.51,8.77 7.96,12.16 3.46,3.38 7.49,6.03 12.24,7.96 4.75,1.93 9.9,2.9 15.53,2.9 5.63,0 10.71,-0.89 15.86,-2.74 5.15,-1.77 10.14,-4.83 15.05,-9.01l15.61 19.88c-6.61,4.99 -14.09,8.77 -22.54,11.27 -8.45,2.49 -16.98,3.78 -25.44,3.78l-0.08 -0.08zm22.94 -18.68l0 -44.59 25.12 0 0 48.21 -25.12 -3.54 0 -0.09z"/>
     <path fill="white" fill-rule="nonzero" d="M2628.09 1081.08l64.63 0 0 22.05 -91.99 0 0 -118.8 89.74 0 0 22.06 -62.46 0 0 74.69 0.08 0zm-2.01 -49.02l57.14 0 0 21.57 -57.14 0 0 -21.57z"/>
     <polygon fill="white" fill-rule="nonzero" points="2714.62,1103.13 2714.62,984.33 2737.31,984.33 2787.86,1068.12 2775.78,1068.12 2825.36,984.33 2848.3,984.33 2848.3,1103.13 2822.7,1103.13 2822.38,1023.93 2827.46,1023.93 2787.45,1090.42 2775.22,1090.42 2734.66,1023.93 2740.29,1023.93 2740.29,1103.13 2714.7,1103.13 "/>
     <path fill="white" fill-rule="nonzero" d="M2904 1081.08l64.63 0 0 22.05 -91.99 0 0 -118.8 89.74 0 0 22.06 -62.46 0 0 74.69 0.08 0zm-2.01 -49.02l57.15 0 0 21.57 -57.15 0 0 -21.57z"/>
     <polygon fill="white" fill-rule="nonzero" points="2990.52,1103.13 2990.52,984.33 3013.22,984.33 3083.32,1069.89 3072.3,1069.89 3072.3,984.34 3099.42,984.33 3099.42,1103.13 3076.64,1103.13 3006.54,1017.66 3017.56,1017.66 3017.56,1103.13 2990.44,1103.13 "/>
     <polygon fill="white" fill-rule="nonzero" points="3152.22,1103.13 3152.22,1006.79 3114.22,1006.79 3114.22,984.42 3217.73,984.42 3217.73,1006.79 3179.74,1006.79 3179.74,1103.13 "/>
     <path fill="white" fill-rule="nonzero" d="M3317.77 1105.15c-8.61,0 -16.34,-1.37 -23.18,-4.27 -6.84,-2.82 -12.24,-6.68 -16.18,-11.51 -3.95,-4.83 -5.96,-10.46 -5.96,-16.82 0,-5.88 1.28,-11.19 3.95,-15.94 2.57,-4.75 6.76,-9.17 12.39,-13.2 5.64,-4.03 12.88,-8.13 21.73,-12.08 6.36,-2.98 11.27,-5.56 14.81,-7.8 3.54,-2.25 6.03,-4.43 7.56,-6.44 1.45,-2.01 2.17,-4.19 2.17,-6.44 0,-2.82 -0.97,-5.15 -2.98,-7 -2.01,-1.86 -4.91,-2.82 -8.77,-2.82 -4.11,0 -7.25,1.05 -9.5,3.06 -2.25,2.01 -3.38,4.67 -3.38,7.81 0,1.69 0.32,3.38 1.12,4.99 0.72,1.61 2.01,3.54 3.86,5.63 1.85,2.09 4.59,4.83 8.05,8.21l62.62 57.87 -14.24 16.82 -69.22 -64.31c-3.86,-3.54 -6.92,-6.84 -9.34,-9.98 -2.42,-3.14 -4.19,-6.28 -5.32,-9.42 -1.2,-3.14 -1.77,-6.28 -1.77,-9.42 0,-5.8 1.53,-10.87 4.67,-15.29 3.14,-4.43 7.49,-7.8 13.04,-10.22 5.55,-2.41 11.99,-3.62 19.24,-3.62 7.24,0 13.03,1.12 18.11,3.3 5.07,2.17 9.01,5.31 11.91,9.42 2.9,4.11 4.35,8.93 4.35,14.57 0,4.83 -1.28,9.42 -3.7,13.6 -2.42,4.18 -6.36,8.13 -11.67,11.67 -5.32,3.54 -12.16,7.32 -20.53,11.03 -5.63,2.57 -10.22,5.15 -13.6,7.65 -3.38,2.49 -5.79,4.91 -7.32,7.4 -1.45,2.41 -2.17,5.23 -2.17,8.37 0,2.74 0.89,5.23 2.58,7.48 1.69,2.26 4.1,4.03 7.32,5.15 3.22,1.12 6.92,1.77 11.35,1.77 6.92,0 13.2,-1.61 18.92,-4.83 5.72,-3.22 10.63,-7.96 14.65,-14.33 4.11,-6.36 6.92,-14 8.7,-23.1l21.25 6.44c-2.25,11.51 -6.44,21.57 -12.64,30.02 -6.19,8.53 -13.76,15.05 -22.78,19.72 -9.01,4.67 -18.99,6.92 -29.94,6.92l-0.17 -0.07z"/>
     <path fill="white" fill-rule="nonzero" d="M3509.65 1105.15c-9.42,0 -18.03,-1.53 -26,-4.59 -7.89,-3.06 -14.81,-7.33 -20.68,-12.88 -5.88,-5.56 -10.46,-12.07 -13.69,-19.48 -3.22,-7.48 -4.83,-15.61 -4.83,-24.46 0,-8.85 1.61,-17.15 4.83,-24.55 3.22,-7.4 7.81,-13.92 13.69,-19.39 5.87,-5.56 12.71,-9.82 20.6,-12.88 7.88,-3.06 16.5,-4.59 25.83,-4.59 9.34,0 18.03,1.53 25.84,4.51 7.88,2.98 14.73,7.24 20.6,12.79 5.87,5.56 10.46,12.08 13.68,19.48 3.22,7.49 4.83,15.69 4.83,24.63 0,8.93 -1.61,16.98 -4.83,24.55 -3.22,7.49 -7.8,14.08 -13.68,19.56 -5.88,5.55 -12.72,9.82 -20.6,12.8 -7.89,2.98 -16.42,4.51 -25.68,4.51l0.09 -0.01zm-0.16 -23.26c5.31,0 10.22,-0.96 14.65,-2.82 4.51,-1.85 8.37,-4.51 11.83,-7.96 3.38,-3.46 6.04,-7.49 7.89,-12.08 1.85,-4.59 2.82,-9.66 2.82,-15.37 0,-5.72 -0.97,-10.78 -2.82,-15.37 -1.85,-4.59 -4.51,-8.61 -7.89,-12.08 -3.38,-3.46 -7.32,-6.11 -11.83,-7.96 -4.43,-1.85 -9.34,-2.82 -14.65,-2.82 -5.32,0 -10.22,0.97 -14.81,2.82 -4.51,1.85 -8.45,4.51 -11.83,7.96 -3.3,3.46 -5.96,7.49 -7.8,12.08 -1.85,4.59 -2.82,9.74 -2.82,15.37 0,5.64 0.96,10.79 2.82,15.37 1.85,4.59 4.51,8.61 7.8,12.08 3.38,3.46 7.24,6.12 11.83,7.96 4.51,1.85 9.42,2.82 14.81,2.82z"/>
     <path fill="white" fill-rule="nonzero" d="M3595.21 1103.13l0 -118.8 51.43 0c10.63,0 19.8,1.69 27.53,5.15 7.72,3.46 13.6,8.37 17.78,14.81 4.19,6.44 6.28,14.08 6.28,22.94 0,8.85 -2.09,16.58 -6.28,23.02 -4.19,6.36 -10.14,11.35 -17.78,14.81 -7.73,3.54 -16.82,5.24 -27.53,5.24l-36.3 0 12.56 -12.4 0 45.16 -27.69 0 0 0.08zm27.69 -42.09l-12.56 -13.04 34.77 0c8.37,0 14.73,-1.77 18.99,-5.39 4.27,-3.62 6.44,-8.7 6.44,-15.29 0,-6.6 -2.17,-11.59 -6.44,-15.21 -4.35,-3.54 -10.63,-5.31 -18.99,-5.31l-34.77 0 12.56 -13.04 0 67.37 0 -0.08z"/>
     <polygon fill="white" fill-rule="nonzero" points="3739.12,1103.13 3739.12,1006.79 3701.13,1006.79 3701.13,984.42 3804.63,984.42 3804.63,1006.79 3766.64,1006.79 3766.64,1103.13 3739.2,1103.13 "/>
     <polygon fill="white" fill-rule="nonzero" points="3819.36,1103.13 3819.36,984.33 3847.05,984.33 3847.05,1103.13 "/>
     <polygon fill="white" fill-rule="nonzero" points="3874.98,1103.13 3874.98,984.33 3897.67,984.33 3948.22,1068.12 3936.14,1068.12 3985.72,984.33 4008.66,984.33 4008.66,1103.13 3983.07,1103.13 3982.74,1023.93 3987.81,1023.93 3947.81,1090.42 3935.58,1090.42 3895.02,1023.93 3900.57,1023.93 3900.57,1103.13 "/>
     <polygon fill="white" fill-rule="nonzero" points="4036.99,1103.13 4036.99,984.33 4064.68,984.33 4064.68,1103.13 "/>
     <polygon fill="white" fill-rule="nonzero" points="4085.04,1103.13 4085.04,1085.35 4158.53,996.82 4161.9,1006.79 4086.41,1006.79 4086.41,984.42 4186.38,984.42 4186.38,1002.21 4113.05,1090.74 4109.67,1080.76 4188.87,1080.76 4188.87,1103.13 "/>
     <path fill="white" fill-rule="nonzero" d="M4190.88 1103.13l52.8 -118.8 27.13 0 53.28 118.8 -28.81 0 -43.62 -104.87 11.02 0 -43.62 104.87 -28.17 0zm26.64 -25.43l6.92 -20.85 61.41 0 7.16 20.85 -75.5 0z"/>
     <polygon fill="white" fill-rule="nonzero" points="4355.15,1103.13 4355.15,1006.79 4317.16,1006.79 4317.16,984.42 4420.67,984.42 4420.67,1006.79 4382.68,1006.79 4382.68,1103.13 4355.23,1103.13 "/>
     <polygon fill="white" fill-rule="nonzero" points="4435.39,1103.13 4435.39,984.33 4463.08,984.33 4463.08,1103.13 "/>
     <path fill="white" fill-rule="nonzero" d="M4548.72 1105.15c-9.42,0 -18.03,-1.53 -26,-4.59 -7.88,-3.06 -14.81,-7.33 -20.68,-12.88 -5.88,-5.56 -10.46,-12.07 -13.68,-19.48 -3.22,-7.48 -4.83,-15.61 -4.83,-24.46 0,-8.85 1.61,-17.15 4.83,-24.55 3.22,-7.4 7.8,-13.92 13.68,-19.39 5.87,-5.56 12.71,-9.82 20.6,-12.88 7.88,-3.06 16.5,-4.59 25.83,-4.59 9.34,0 18.03,1.53 25.84,4.51 7.89,2.98 14.73,7.24 20.6,12.79 5.87,5.56 10.46,12.08 13.68,19.48 3.22,7.49 4.83,15.69 4.83,24.63 0,8.93 -1.61,16.98 -4.83,24.55 -3.22,7.49 -7.8,14.08 -13.68,19.56 -5.87,5.55 -12.71,9.82 -20.6,12.8 -7.89,2.98 -16.42,4.51 -25.67,4.51l0.08 -0.01zm-0.16 -23.26c5.31,0 10.22,-0.96 14.65,-2.82 4.51,-1.85 8.37,-4.51 11.83,-7.96 3.38,-3.46 6.04,-7.49 7.89,-12.08 1.85,-4.59 2.82,-9.66 2.82,-15.37 0,-5.72 -0.97,-10.78 -2.82,-15.37 -1.85,-4.59 -4.51,-8.61 -7.89,-12.08 -3.38,-3.46 -7.32,-6.11 -11.83,-7.96 -4.43,-1.85 -9.34,-2.82 -14.65,-2.82 -5.31,0 -10.22,0.97 -14.81,2.82 -4.51,1.85 -8.45,4.51 -11.83,7.96 -3.3,3.46 -5.96,7.49 -7.8,12.08 -1.85,4.59 -2.82,9.74 -2.82,15.37 0,5.64 0.96,10.79 2.82,15.37 1.85,4.59 4.51,8.61 7.8,12.08 3.38,3.46 7.24,6.12 11.83,7.96 4.51,1.85 9.42,2.82 14.81,2.82z"/>
     <polygon fill="white" fill-rule="nonzero" points="4634.19,1103.13 4634.19,984.33 4656.89,984.33 4726.99,1069.89 4715.97,1069.89 4715.97,984.34 4743.09,984.33 4743.09,1103.13 4720.31,1103.13 4650.21,1017.66 4661.24,1017.66 4661.24,1103.13 4634.12,1103.13 "/>
    </g>
   </g>
  </g>
 </g>
</svg>
