<?xml version="1.0" encoding="UTF-8"?>
<!DOCTYPE svg PUBLIC "-//W3C//DTD SVG 1.1//EN" "http://www.w3.org/Graphics/SVG/1.1/DTD/svg11.dtd">
<!-- Creator: CorelDRAW -->
<svg xmlns="http://www.w3.org/2000/svg" xml:space="preserve" width="26.6464mm" height="6.209mm" version="1.1" shape-rendering="geometricPrecision" text-rendering="geometricPrecision" image-rendering="optimizeQuality" fill-rule="evenodd" clip-rule="evenodd"
viewBox="0 0 341.95 79.68"
 xmlns:xlink="http://www.w3.org/1999/xlink"
 xmlns:xodm="http://www.corel.com/coreldraw/odm/2003">
 <g id="Layer_x0020_1">
  <metadata id="CorelCorpID_0Corel-Layer"/>
  <g id="_105553235393408">
   <g>
    <path fill="white" fill-rule="nonzero" d="M98.93 46.66c-0.01,0.23 -0.03,0.45 -0.07,0.68 -0.02,0.14 -0.05,0.28 -0.08,0.42 -0.02,0.11 -0.05,0.22 -0.09,0.33 -0.03,0.12 -0.07,0.24 -0.11,0.35 -0.03,0.11 -0.08,0.23 -0.12,0.34 -0.05,0.12 -0.1,0.24 -0.16,0.37 -1.57,3.38 -5.58,4.83 -8.95,3.26 -3.32,-1.55 -4.79,-5.48 -3.32,-8.83 0.02,-0.05 0.03,-0.09 0.06,-0.13 0.02,-0.04 0.03,-0.07 0.05,-0.1 0.85,-1.77 2.38,-3 4.14,-3.51 0.12,-0.03 0.25,-0.07 0.38,-0.1 0.13,-0.03 0.26,-0.05 0.38,-0.08 0.12,-0.02 0.23,-0.03 0.34,-0.05 0.15,-0.02 0.3,-0.03 0.45,-0.03 0.24,-0.02 0.48,-0.02 0.73,-0.01 0.22,0.01 0.44,0.03 0.66,0.07 0.15,0.02 0.3,0.05 0.45,0.09 0.45,0.11 0.89,0.26 1.32,0.46 2.02,0.95 3.39,2.76 3.82,4.79 0.03,0.13 0.05,0.27 0.07,0.41 0.06,0.42 0.08,0.85 0.06,1.29l-0 0z"/>
    <path fill="white" fill-rule="nonzero" d="M122.4 60.4c-6.79,14.58 -22.85,21.94 -37.92,18.39 -2.18,-0.51 -4.35,-1.25 -6.45,-2.24 -2.08,-0.97 -4,-2.12 -5.78,-3.43l3.27 -7.01 0.01 0 2.63 -5.64 6.63 -14.23c-0.02,2.81 1.57,5.51 4.28,6.78 2.71,1.27 5.8,0.75 7.93,-1.07l-6.62 14.19c8.11,0.71 16.17,-3.63 19.8,-11.42 3.64,-7.79 1.78,-16.76 -3.98,-22.51 -0.23,-0.24 -0.48,-0.47 -0.73,-0.68 -0.33,-6.49 -2.35,-12.54 -5.63,-17.71 2.17,0.52 4.31,1.26 6.41,2.23 2.11,0.98 4.07,2.16 5.87,3.49 12.41,9.26 17.08,26.3 10.29,40.88l0 0z"/>
    <path fill="white" fill-rule="nonzero" d="M63.08 29.84c1.19,-1.91 3.31,-3.18 5.72,-3.18 1.02,0 1.99,0.23 2.86,0.63 0.02,0.02 0.05,0.03 0.08,0.04 2.25,1.09 3.79,3.4 3.79,6.06 0,0.93 -0.19,1.82 -0.53,2.62 -0.05,0.12 -0.1,0.22 -0.15,0.33l-0.09 0.2 -0.01 0.02 -1.25 2.68 0 0.02 -0.02 0.02 -6.5 13.94 -0.89 1.91 -2.31 4.94 -0.31 0.68c-0.21,0.42 -0.42,0.85 -0.64,1.25 -0.02,0.04 -0.05,0.09 -0.08,0.13 -0.08,0.14 -0.15,0.28 -0.22,0.41 -0.61,1.1 -1.29,2.17 -2.04,3.19 -0.5,0.7 -1.03,1.37 -1.58,2.02 -0.09,0.12 -0.19,0.23 -0.28,0.34 -0.13,0.16 -0.27,0.31 -0.41,0.47 -0.12,0.12 -0.23,0.24 -0.34,0.37 -6.09,6.6 -14.83,10.73 -24.5,10.73 -4.86,0 -9.47,-1.04 -13.64,-2.91l-0.82 -0.38c-11.18,-5.4 -18.92,-16.86 -18.92,-30.09 0,-4.86 1.04,-9.47 2.91,-13.64l0.38 -0.82c4.46,-9.24 13.05,-16.13 23.37,-18.24l0 0c1.99,-0.41 4.04,-0.64 6.14,-0.67 0.19,0 0.38,0 0.57,0 0.36,0 0.71,0 1.06,0.02l0 0c1.24,0.04 2.46,0.15 3.67,0.32 1.01,0.14 2,0.33 2.98,0.56 0.09,0.02 0.18,0.04 0.27,0.06l0 0c0,0 0.03,0.01 0.05,0.02 0.08,0.02 0.17,0.04 0.25,0.07l0 0c0.05,-0.08 0.1,-0.14 0.15,-0.21 0.05,-0.07 0.1,-0.13 0.15,-0.21 0.01,-0.02 0.02,-0.03 0.03,-0.05 0.21,-0.28 0.42,-0.56 0.63,-0.82 0.17,-0.22 0.35,-0.42 0.52,-0.64 0.02,-0.03 0.06,-0.07 0.09,-0.1 0.16,-0.19 0.32,-0.38 0.49,-0.57 0.05,-0.06 0.1,-0.12 0.15,-0.17 0.15,-0.17 0.3,-0.34 0.46,-0.51 0.26,-0.27 0.51,-0.55 0.77,-0.8 0.19,-0.2 0.39,-0.39 0.59,-0.57 0.3,-0.29 0.61,-0.57 0.92,-0.85 0.16,-0.14 0.32,-0.28 0.49,-0.42 0.52,-0.45 1.05,-0.87 1.6,-1.29 0.25,-0.19 0.5,-0.37 0.75,-0.56 0.22,-0.16 0.44,-0.31 0.66,-0.46 0.12,-0.09 0.25,-0.17 0.38,-0.25 0.18,-0.12 0.37,-0.24 0.55,-0.35 0.02,-0.01 0.03,-0.02 0.05,-0.02 0.22,-0.14 0.44,-0.28 0.66,-0.41 0.31,-0.18 0.64,-0.37 0.96,-0.55 0.27,-0.15 0.53,-0.28 0.8,-0.42 0.02,-0.01 0.05,-0.02 0.07,-0.03 0.56,-0.29 1.14,-0.56 1.72,-0.82 0.3,-0.13 0.59,-0.26 0.89,-0.38 0.86,-0.36 1.75,-0.67 2.65,-0.96 0.03,0 0.06,-0.02 0.09,-0.02 0.3,-0.09 0.59,-0.17 0.89,-0.26 0.04,-0.02 0.09,-0.02 0.14,-0.04 0.25,-0.07 0.5,-0.13 0.75,-0.19 0.07,-0.02 0.14,-0.04 0.21,-0.06 0.28,-0.07 0.57,-0.13 0.85,-0.19 0.32,-0.07 0.65,-0.13 0.98,-0.19 0.32,-0.06 0.65,-0.12 0.98,-0.17 0.36,-0.06 0.72,-0.11 1.09,-0.15 0.3,-0.03 0.6,-0.07 0.9,-0.09 0.31,-0.03 0.64,-0.06 0.96,-0.08 0.02,0 0.04,0 0.07,0 0.31,-0.02 0.63,-0.03 0.95,-0.05l0.08 0c0.33,-0.01 0.66,-0.02 1,-0.02l0.02 0c0.31,0 0.62,0 0.92,0.02 0.31,0 0.61,0.02 0.92,0.03 0.23,0.01 0.47,0.02 0.7,0.05 0.17,0.01 0.35,0.02 0.52,0.05 0.22,0.02 0.42,0.03 0.63,0.06 0.29,0.03 0.57,0.07 0.86,0.11 0.03,0 0.06,0 0.1,0.01 0.22,0.03 0.44,0.06 0.66,0.1 0.19,0.03 0.38,0.06 0.57,0.1 0.26,0.05 0.51,0.09 0.77,0.15 0.07,0.01 0.13,0.02 0.2,0.04 0.21,0.04 0.41,0.09 0.61,0.13 0.05,0.01 0.11,0.02 0.16,0.04 0.23,0.06 0.46,0.12 0.7,0.17 0.27,0.07 0.53,0.14 0.8,0.22 0.53,0.15 1.04,0.31 1.57,0.49 0.12,0.04 0.25,0.08 0.37,0.13 0.18,0.06 0.36,0.12 0.53,0.19 0.27,0.1 0.54,0.2 0.8,0.31 0.22,0.09 0.44,0.17 0.65,0.27 0.18,0.08 0.37,0.16 0.55,0.24 0.08,0.03 0.15,0.06 0.22,0.1 0.08,0.04 0.16,0.08 0.24,0.11 0.03,0.02 0.07,0.03 0.11,0.05 0.04,0.02 0.08,0.03 0.11,0.05 0.16,0.08 0.32,0.15 0.48,0.23 0.15,0.07 0.29,0.14 0.43,0.22 0.48,0.24 0.95,0.5 1.42,0.77 0.22,0.12 0.45,0.26 0.67,0.39 0.27,0.17 0.55,0.34 0.82,0.51 0.41,0.27 0.82,0.55 1.22,0.83 0.45,0.31 0.88,0.64 1.31,0.98 0.2,0.16 0.41,0.32 0.6,0.49 0.2,0.16 0.39,0.32 0.59,0.5 0.21,0.17 0.41,0.37 0.62,0.55 0.4,0.36 0.78,0.73 1.16,1.11 0.19,0.18 0.37,0.38 0.56,0.57 0.19,0.19 0.37,0.39 0.55,0.59 0.37,0.39 0.71,0.8 1.05,1.21 0.16,0.2 0.32,0.39 0.48,0.6 0.01,0.01 0.02,0.02 0.03,0.04 3.59,4.57 6.01,10.09 6.82,16.11 -0.44,-0.24 -0.88,-0.47 -1.33,-0.69 -2.12,-0.99 -4.33,-1.57 -6.54,-1.77 -1.48,-0.14 -2.96,-0.11 -4.41,0.08 -0.66,0.08 -1.32,0.21 -1.97,0.36 -0.04,-0.12 -0.08,-0.23 -0.13,-0.35 -0.05,-0.15 -0.11,-0.3 -0.17,-0.45 -0.03,-0.09 -0.07,-0.18 -0.11,-0.27 -0.08,-0.21 -0.17,-0.41 -0.27,-0.62 -0.02,-0.05 -0.03,-0.09 -0.06,-0.13 -0.07,-0.17 -0.16,-0.34 -0.24,-0.5 -0.08,-0.17 -0.17,-0.33 -0.26,-0.49 -0.05,-0.12 -0.12,-0.22 -0.17,-0.32 -0.05,-0.09 -0.1,-0.17 -0.15,-0.27 -0.11,-0.19 -0.22,-0.38 -0.34,-0.56 -0.05,-0.09 -0.1,-0.17 -0.16,-0.26 -0.09,-0.15 -0.19,-0.3 -0.29,-0.44 -0.08,-0.12 -0.16,-0.24 -0.25,-0.36 -0.28,-0.4 -0.57,-0.79 -0.9,-1.17 -0.09,-0.12 -0.18,-0.23 -0.28,-0.34 -0.12,-0.15 -0.25,-0.28 -0.38,-0.42 -0.08,-0.09 -0.17,-0.19 -0.27,-0.28 -0.1,-0.12 -0.22,-0.23 -0.33,-0.34 -0.11,-0.12 -0.22,-0.23 -0.34,-0.33 -0.22,-0.22 -0.45,-0.42 -0.68,-0.62 -0.19,-0.17 -0.38,-0.33 -0.59,-0.48 -0.18,-0.16 -0.37,-0.3 -0.56,-0.44 -0.06,-0.05 -0.11,-0.09 -0.17,-0.12 -0.2,-0.16 -0.41,-0.3 -0.62,-0.44 -0.02,-0.01 -0.02,-0.02 -0.03,-0.02 -0.26,-0.17 -0.51,-0.33 -0.77,-0.49 -0.19,-0.12 -0.39,-0.23 -0.59,-0.34 -0.07,-0.04 -0.13,-0.08 -0.21,-0.12 0.02,-0.01 0.03,-0.02 0.05,-0.02l-1.38 -0.64c-0.74,-0.33 -1.5,-0.62 -2.28,-0.86 -0.13,-0.04 -0.26,-0.08 -0.39,-0.12 -0.21,-0.06 -0.41,-0.12 -0.62,-0.17 -0.13,-0.03 -0.27,-0.07 -0.41,-0.1 -0.13,-0.04 -0.27,-0.06 -0.41,-0.09 -0.51,-0.11 -1.03,-0.2 -1.56,-0.26 -0.16,-0.02 -0.32,-0.04 -0.49,-0.06 -0.13,-0.02 -0.27,-0.02 -0.4,-0.03 -0.18,-0.02 -0.36,-0.03 -0.54,-0.03 -0.37,-0.02 -0.73,-0.03 -1.09,-0.03 -0.89,0 -1.76,0.06 -2.62,0.17 -0.46,0.06 -0.93,0.14 -1.39,0.23 -0.52,0.11 -1.04,0.24 -1.54,0.38 -0.28,0.08 -0.57,0.17 -0.85,0.27 -0.31,0.11 -0.62,0.22 -0.92,0.34 -0.29,0.12 -0.57,0.24 -0.86,0.37 -0.16,0.08 -0.31,0.15 -0.47,0.22 -0.28,0.13 -0.56,0.27 -0.82,0.42 -0.01,0 -0.02,0.01 -0.03,0.02 -0.28,0.16 -0.56,0.31 -0.84,0.48 -0.4,0.24 -0.79,0.5 -1.17,0.77 -0.93,0.66 -1.8,1.4 -2.6,2.21 -0.22,0.22 -0.44,0.46 -0.66,0.69 -0.14,0.16 -0.28,0.31 -0.42,0.48 -0.3,0.35 -0.58,0.71 -0.85,1.09 -0.1,0.14 -0.21,0.28 -0.31,0.43 -0.29,0.41 -0.56,0.84 -0.82,1.28 -0.13,0.22 -0.26,0.44 -0.37,0.66 -0.12,0.22 -0.24,0.45 -0.35,0.67l-0.05 0.1 -0.21 0.46 -0.08 0.17 -3.16 6.77 -0.51 1.1 -7.3 15.65 -0.17 0.36c-0.53,1.07 -1.34,1.99 -2.34,2.65 -1.05,0.7 -2.33,1.11 -3.7,1.11 -3.72,0 -6.74,-3.02 -6.74,-6.74 0,-0.93 0.19,-1.82 0.53,-2.62 0.05,-0.12 0.1,-0.24 0.16,-0.35l4.74 -10.16 3.12 -6.7c-0.6,-0.06 -1.2,-0.08 -1.81,-0.08 -0.21,0 -0.43,0 -0.64,0.02 -1.71,0.05 -3.37,0.32 -4.94,0.78 -5.45,1.59 -9.93,5.45 -12.36,10.49l-0.22 0.46c-1.13,2.49 -1.75,5.26 -1.75,8.16 0,8.06 4.82,15.02 11.73,18.15 2.5,1.13 5.27,1.76 8.18,1.76 4.15,0 8.01,-1.28 11.2,-3.46 0.34,-0.23 0.67,-0.47 1,-0.73 0.03,-0.02 0.08,-0.06 0.11,-0.09 0.09,-0.06 0.17,-0.13 0.26,-0.21 0.79,-0.64 1.53,-1.33 2.21,-2.09l0 0c2.14,-2.33 3.43,-5.21 5.73,-10.19 0.28,-0.61 0.57,-1.24 0.89,-1.91l6.34 -13.58 0.01 -0.02 0.01 -0.03 1.44 -3.09 0.5 -0.96 0.02 -0.01z"/>
    <path fill="white" fill-rule="nonzero" d="M98.3 49.13c-1.57,3.38 -5.58,4.83 -8.95,3.26 -3.37,-1.57 -4.83,-5.58 -3.26,-8.96 1.57,-3.37 5.58,-4.83 8.96,-3.25 3.37,1.57 4.83,5.58 3.26,8.95z"/>
    <path fill="white" fill-rule="nonzero" d="M92.21 39.55c-0.12,0.01 -0.25,0.01 -0.38,0.02 0.24,-0.02 0.48,-0.02 0.73,-0.01 -0.12,-0.01 -0.23,-0.01 -0.35,-0.01l0 0z"/>
   </g>
   <g>
    <g>
     <g>
      <path fill="white" fill-rule="nonzero" d="M238.63 8.9c-0.08,0 -0.17,0 -0.26,0l0.5 0c-0.08,0 -0.17,0 -0.25,0z"/>
      <path fill="white" fill-rule="nonzero" d="M236.86 40.6c0,-3.13 0.58,-6.05 1.75,-8.75 1.17,-2.7 2.77,-5.07 4.8,-7.1 2.03,-2.03 4.42,-3.63 7.15,-4.8 2.73,-1.17 5.63,-1.75 8.7,-1.75 3.06,0 6.05,0.59 8.75,1.75 2.7,1.17 5.08,2.77 7.15,4.8 2.07,2.04 3.69,4.4 4.85,7.1 1.17,2.7 1.75,5.62 1.75,8.75 0,3.13 -0.59,5.96 -1.75,8.7 -1.17,2.73 -2.78,5.14 -4.85,7.2 -2.06,2.07 -4.45,3.69 -7.15,4.85 -2.7,1.17 -5.62,1.75 -8.75,1.75 -3.13,0 -5.96,-0.58 -8.7,-1.75 -2.73,-1.17 -5.12,-2.78 -7.15,-4.85 -2.04,-2.06 -3.63,-4.46 -4.8,-7.2 -1.17,-2.73 -1.75,-5.63 -1.75,-8.7zm8.8 0c0,1.87 0.35,3.63 1.05,5.3 0.7,1.67 1.67,3.12 2.9,4.35 1.23,1.24 2.68,2.2 4.35,2.9 1.67,0.7 3.44,1.05 5.3,1.05 1.86,0 3.63,-0.35 5.3,-1.05 1.67,-0.7 3.12,-1.66 4.35,-2.9 1.24,-1.24 2.2,-2.68 2.9,-4.35 0.7,-1.66 1.05,-3.43 1.05,-5.3 0,-1.86 -0.35,-3.61 -1.05,-5.25 -0.7,-1.63 -1.66,-3.06 -2.9,-4.3 -1.24,-1.23 -2.69,-2.2 -4.35,-2.9 -1.66,-0.7 -3.43,-1.05 -5.3,-1.05 -1.86,0 -3.63,0.35 -5.3,1.05 -1.67,0.7 -3.12,1.67 -4.35,2.9 -1.24,1.24 -2.2,2.67 -2.9,4.3 -0.7,1.64 -1.05,3.38 -1.05,5.25z"/>
      <g>
       <path fill="white" fill-rule="nonzero" d="M189.7 14.6c-0.47,1.1 -0.7,2.26 -0.7,3.51 0,1.25 0.24,2.43 0.7,3.54 0.46,1.11 1.11,2.08 1.94,2.91 0.82,0.82 1.79,1.47 2.9,1.94 1.11,0.47 2.29,0.7 3.54,0.7l18.06 0c2.45,0 4.77,0.47 6.96,1.4 2.19,0.93 4.09,2.22 5.71,3.84 1.1,1.1 2.04,2.32 2.82,3.66l0 0c0,0 0,0.01 0,0.01 0.37,0.64 0.71,1.31 1.01,2 0.93,2.15 1.4,4.49 1.4,6.99 0,2.51 -0.46,4.77 -1.4,6.96 -0.32,0.74 -0.67,1.44 -1.07,2.12 0,0 0,0.01 -0.01,0.01 -0.77,1.33 -1.69,2.54 -2.76,3.62 -1.63,1.65 -3.53,2.95 -5.72,3.88 -0.37,0.16 -0.74,0.31 -1.13,0.44 -1.85,0.64 -3.79,0.96 -5.83,0.96l-35.99 0 0 -8.9 35.99 0c1.25,0 2.43,-0.23 3.54,-0.7 1.11,-0.47 2.08,-1.11 2.9,-1.94 0.82,-0.83 1.47,-1.79 1.94,-2.91 0.47,-1.11 0.7,-2.29 0.7,-3.54 0,-1.25 -0.24,-2.41 -0.7,-3.51 -0.46,-1.09 -1.11,-2.05 -1.94,-2.87 -0.82,-0.82 -1.79,-1.47 -2.9,-1.94 -0.96,-0.4 -1.97,-0.63 -3.03,-0.68 -0.06,0 -0.12,-0.01 -0.19,-0.01 -0.02,0 -0.05,0 -0.06,0 -0.09,0 -0.17,0 -0.26,0 -0.08,0 -0.17,0 -0.25,0l-18.19 0c-1.9,-0.04 -3.71,-0.36 -5.45,-0.96 -0.38,-0.13 -0.75,-0.27 -1.13,-0.44 -2.19,-0.93 -4.09,-2.22 -5.71,-3.88 -1.07,-1.09 -2,-2.3 -2.76,-3.62 0,0 0,-0.01 -0.01,-0.01 -0.4,-0.68 -0.75,-1.39 -1.07,-2.12 -0.93,-2.18 -1.4,-4.5 -1.4,-6.96 0,-2.45 0.46,-4.84 1.4,-6.99 0.3,-0.7 0.64,-1.36 1.01,-2 0,0 0.01,-0.01 0.01,-0.01 0.78,-1.35 1.72,-2.56 2.82,-3.66 1.63,-1.62 3.53,-2.91 5.71,-3.84 2.18,-0.93 4.5,-1.4 6.96,-1.4l35.99 0 0 8.9 -35.73 0c-0.08,0 -0.17,0 -0.25,0 -0.08,0 -0.17,0 -0.26,0 -0.09,0 -0.17,0.01 -0.26,0.01 -1.06,0.05 -2.07,0.28 -3.03,0.69 -1.11,0.47 -2.08,1.11 -2.9,1.94 -0.82,0.82 -1.47,1.78 -1.94,2.87l0 0z"/>
       <path fill="white" fill-rule="nonzero" d="M216.46 36.09l-18.38 0c-0.13,0 -0.26,0 -0.38,0l18.19 0c0.08,0 0.17,0 0.25,0 0.08,0 0.17,0 0.26,0 0.02,0 0.05,0 0.06,0l0.01 0z"/>
      </g>
      <path fill="white" fill-rule="nonzero" d="M302.05 9.95c-1.67,0.7 -3.12,1.67 -4.35,2.9 -1.24,1.24 -2.2,2.67 -2.9,4.3 -0.7,1.64 -1.05,3.38 -1.05,5.25l0 4.6 18 0 0 8.9 -18 0 0 27 -8.9 0 0 -40.49c0,-3.13 0.58,-6.05 1.75,-8.75 1.17,-2.7 2.78,-5.07 4.85,-7.1 2.06,-2.03 4.47,-3.63 7.2,-4.8 2.73,-1.17 5.63,-1.75 8.7,-1.75l4.4 0 0 8.9 -4.4 0c-1.87,0 -3.63,0.35 -5.3,1.05l0 -0.01z"/>
      <path fill="white" fill-rule="nonzero" d="M341.95 54l0 8.9 -4.4 0c-3.07,0 -5.97,-0.58 -8.7,-1.75 -2.73,-1.17 -5.14,-2.78 -7.2,-4.85 -2.07,-2.06 -3.69,-4.47 -4.85,-7.2 -1.17,-2.73 -1.75,-5.63 -1.75,-8.7l0 -40.4 8.9 0 0 27 18 0 0 8.9 -18 0 0 4.5c0,1.87 0.35,3.63 1.05,5.3 0.7,1.67 1.66,3.12 2.9,4.35 1.23,1.24 2.68,2.2 4.35,2.9 1.66,0.7 3.43,1.05 5.3,1.05l4.4 0z"/>
     </g>
     <polygon fill="white" fill-rule="nonzero" points="162.61,42.66 179.73,42.66 179.73,47.21 162.61,47.21 "/>
     <g>
      <path fill="#FFCE09" fill-rule="nonzero" d="M157.4 23.53c0,-2.88 -2.25,-5.33 -5.23,-5.33 -2.79,0 -5.09,2.59 -5.09,5.28 0,3.03 2.15,5.42 5.23,5.42 2.88,0 5.09,-2.54 5.09,-5.38z"/>
      <path fill="#FFCE09" fill-rule="nonzero" d="M162.41 59.15c-3.61,1.37 -6.5,1.23 -8.44,0.77 -1.31,-0.16 -2.18,-0.59 -2.76,-1.1l-0.01 0c-1.15,-1.04 -1.14,-2.45 -1.14,-2.9 0,-0.59 0.31,-2.05 0.46,-2.63l5.08 -18c0.05,-0.2 0.39,-1.47 0.39,-1.67 0,-0.39 -0.05,-0.63 -0.44,-0.63 -0.3,0 -0.78,0.2 -1.07,0.34 -2.25,0.74 -7.09,1.22 -9.53,1.22l-1.86 0c-0.1,0.54 -0.39,1.37 -0.39,1.9 0,1.32 2.25,0.29 2.25,2.4 0,0.34 -0.05,0.59 -0.2,0.98l-2.7 10.22c-0.3,1.22 -0.67,2.64 -0.73,3.86 -0.38,7.39 5.95,8.84 8.76,9.11 3.23,0.31 7.79,-0.31 10.22,-1.18 0.79,-0.28 1.47,-0.56 2.12,-0.86l0 -1.83 -0.01 0z"/>
     </g>
    </g>
    <g>
     <path fill="white" fill-rule="nonzero" d="M143.27 77.94l4.66 0 0 1.59 -6.63 0 0 -8.56 6.47 0 0 1.59 -4.5 0 0 5.38 0.01 0zm-0.15 -3.53l4.12 0 0 1.56 -4.12 0 0 -1.56z"/>
     <polygon fill="white" fill-rule="nonzero" points="149.51,79.53 149.51,70.96 151.15,70.96 156.2,77.13 155.41,77.13 155.41,70.96 157.36,70.96 157.36,79.53 155.72,79.53 150.66,73.36 151.46,73.36 151.46,79.53 149.5,79.53 "/>
     <path fill="white" fill-rule="nonzero" d="M163.52 79.67c-0.68,0 -1.3,-0.11 -1.87,-0.32 -0.57,-0.21 -1.06,-0.52 -1.48,-0.92 -0.42,-0.4 -0.74,-0.87 -0.98,-1.4 -0.23,-0.53 -0.35,-1.13 -0.35,-1.78 0,-0.64 0.12,-1.24 0.35,-1.77 0.23,-0.54 0.56,-1 0.99,-1.4 0.42,-0.4 0.92,-0.71 1.49,-0.92 0.57,-0.22 1.2,-0.33 1.89,-0.33 0.76,0 1.44,0.13 2.05,0.38 0.61,0.26 1.12,0.62 1.54,1.1l-1.26 1.17c-0.32,-0.33 -0.66,-0.58 -1.03,-0.74 -0.37,-0.16 -0.77,-0.24 -1.21,-0.24 -0.41,0 -0.78,0.07 -1.13,0.2 -0.34,0.13 -0.64,0.33 -0.89,0.57 -0.25,0.24 -0.44,0.53 -0.57,0.87 -0.13,0.34 -0.2,0.71 -0.2,1.11 0,0.41 0.07,0.75 0.2,1.1 0.13,0.34 0.32,0.63 0.57,0.88 0.25,0.24 0.54,0.44 0.88,0.57 0.34,0.14 0.71,0.21 1.12,0.21 0.41,0 0.77,-0.06 1.14,-0.2 0.37,-0.13 0.73,-0.35 1.08,-0.65l1.13 1.43c-0.48,0.36 -1.02,0.63 -1.62,0.81 -0.61,0.18 -1.22,0.27 -1.83,0.27l-0.01 -0.01zm1.65 -1.35l0 -3.21 1.81 0 0 3.48 -1.81 -0.26 0 -0.01z"/>
     <path fill="white" fill-rule="nonzero" d="M167.69 79.53l3.81 -8.56 1.96 0 3.84 8.56 -2.08 0 -3.15 -7.56 0.79 0 -3.14 7.56 -2.03 0zm1.92 -1.83l0.5 -1.5 4.43 0 0.52 1.5 -5.44 0z"/>
     <path fill="white" fill-rule="nonzero" d="M182.2 79.67c-0.68,0 -1.3,-0.11 -1.87,-0.32 -0.57,-0.21 -1.06,-0.52 -1.48,-0.92 -0.42,-0.4 -0.74,-0.87 -0.98,-1.4 -0.23,-0.53 -0.35,-1.13 -0.35,-1.78 0,-0.64 0.12,-1.24 0.35,-1.77 0.23,-0.54 0.56,-1 0.99,-1.4 0.42,-0.4 0.92,-0.71 1.49,-0.92 0.57,-0.22 1.2,-0.33 1.89,-0.33 0.76,0 1.44,0.13 2.05,0.38 0.61,0.26 1.12,0.62 1.54,1.1l-1.26 1.17c-0.32,-0.33 -0.66,-0.58 -1.03,-0.74 -0.37,-0.16 -0.77,-0.24 -1.21,-0.24 -0.41,0 -0.78,0.07 -1.13,0.2 -0.34,0.13 -0.64,0.33 -0.89,0.57 -0.25,0.24 -0.44,0.53 -0.57,0.87 -0.13,0.34 -0.2,0.71 -0.2,1.11 0,0.41 0.07,0.75 0.2,1.1 0.13,0.34 0.32,0.63 0.57,0.88 0.25,0.24 0.54,0.44 0.88,0.57 0.34,0.14 0.71,0.21 1.12,0.21 0.41,0 0.77,-0.06 1.14,-0.2 0.37,-0.13 0.73,-0.35 1.08,-0.65l1.13 1.43c-0.47,0.36 -1.02,0.63 -1.62,0.81 -0.61,0.18 -1.23,0.27 -1.83,0.27l-0.01 -0.01zm1.65 -1.35l0 -3.21 1.81 0 0 3.48 -1.81 -0.26 0 -0.01z"/>
     <path fill="white" fill-rule="nonzero" d="M189.46 77.94l4.66 0 0 1.59 -6.63 0 0 -8.56 6.47 0 0 1.59 -4.5 0 0 5.38 0.01 0zm-0.15 -3.53l4.12 0 0 1.56 -4.12 0 0 -1.56z"/>
     <polygon fill="white" fill-rule="nonzero" points="195.7,79.53 195.7,70.96 197.34,70.96 200.98,77 200.11,77 203.69,70.96 205.34,70.96 205.34,79.53 203.49,79.53 203.47,73.82 203.84,73.82 200.95,78.61 200.07,78.61 197.15,73.82 197.55,73.82 197.55,79.53 195.71,79.53 "/>
     <path fill="white" fill-rule="nonzero" d="M209.36 77.94l4.66 0 0 1.59 -6.63 0 0 -8.56 6.47 0 0 1.59 -4.5 0 0 5.38 0.01 0zm-0.15 -3.53l4.12 0 0 1.56 -4.12 0 0 -1.56z"/>
     <polygon fill="white" fill-rule="nonzero" points="215.59,79.53 215.59,70.96 217.23,70.96 222.28,77.13 221.49,77.13 221.49,70.96 223.44,70.96 223.44,79.53 221.8,79.53 216.75,73.36 217.54,73.36 217.54,79.53 215.59,79.53 "/>
     <polygon fill="white" fill-rule="nonzero" points="227.25,79.53 227.25,72.58 224.51,72.58 224.51,70.97 231.97,70.97 231.97,72.58 229.23,72.58 229.23,79.53 "/>
     <path fill="white" fill-rule="nonzero" d="M239.18 79.67c-0.62,0 -1.18,-0.1 -1.67,-0.31 -0.49,-0.2 -0.88,-0.48 -1.17,-0.83 -0.28,-0.35 -0.43,-0.75 -0.43,-1.21 0,-0.42 0.09,-0.81 0.28,-1.15 0.19,-0.34 0.49,-0.66 0.89,-0.95 0.41,-0.29 0.93,-0.59 1.57,-0.87 0.46,-0.21 0.81,-0.4 1.07,-0.56 0.26,-0.16 0.44,-0.32 0.55,-0.46 0.11,-0.15 0.16,-0.3 0.16,-0.46 0,-0.2 -0.07,-0.37 -0.21,-0.5 -0.15,-0.13 -0.35,-0.2 -0.63,-0.2 -0.3,0 -0.52,0.08 -0.68,0.22 -0.16,0.15 -0.24,0.34 -0.24,0.56 0,0.12 0.02,0.24 0.08,0.36 0.05,0.12 0.15,0.26 0.28,0.41 0.13,0.15 0.33,0.35 0.58,0.59l4.51 4.17 -1.03 1.21 -4.99 -4.64c-0.28,-0.26 -0.5,-0.49 -0.67,-0.72 -0.17,-0.23 -0.3,-0.45 -0.38,-0.68 -0.09,-0.23 -0.13,-0.45 -0.13,-0.68 0,-0.42 0.11,-0.78 0.34,-1.1 0.23,-0.32 0.54,-0.56 0.94,-0.74 0.4,-0.17 0.86,-0.26 1.39,-0.26 0.52,0 0.94,0.08 1.31,0.24 0.37,0.16 0.65,0.38 0.86,0.68 0.21,0.3 0.31,0.64 0.31,1.05 0,0.35 -0.09,0.68 -0.27,0.98 -0.17,0.3 -0.46,0.59 -0.84,0.84 -0.38,0.26 -0.88,0.53 -1.48,0.79 -0.41,0.19 -0.74,0.37 -0.98,0.55 -0.24,0.18 -0.42,0.35 -0.53,0.53 -0.1,0.17 -0.16,0.38 -0.16,0.6 0,0.2 0.06,0.38 0.19,0.54 0.12,0.16 0.3,0.29 0.53,0.37 0.23,0.08 0.5,0.13 0.82,0.13 0.5,0 0.95,-0.12 1.36,-0.35 0.41,-0.23 0.77,-0.57 1.06,-1.03 0.3,-0.46 0.5,-1.01 0.63,-1.67l1.53 0.46c-0.16,0.83 -0.46,1.56 -0.91,2.16 -0.45,0.61 -0.99,1.08 -1.64,1.42 -0.65,0.34 -1.37,0.5 -2.16,0.5l-0.01 -0.01z"/>
     <path fill="white" fill-rule="nonzero" d="M253.02 79.67c-0.68,0 -1.3,-0.11 -1.87,-0.33 -0.57,-0.22 -1.07,-0.53 -1.49,-0.93 -0.42,-0.4 -0.75,-0.87 -0.99,-1.4 -0.23,-0.54 -0.35,-1.13 -0.35,-1.76 0,-0.64 0.12,-1.24 0.35,-1.77 0.23,-0.53 0.56,-1 0.99,-1.4 0.42,-0.4 0.92,-0.71 1.49,-0.93 0.57,-0.22 1.19,-0.33 1.86,-0.33 0.67,0 1.3,0.11 1.86,0.32 0.57,0.21 1.06,0.52 1.49,0.92 0.42,0.4 0.75,0.87 0.99,1.4 0.23,0.54 0.35,1.13 0.35,1.78 0,0.64 -0.12,1.22 -0.35,1.77 -0.23,0.54 -0.56,1.02 -0.99,1.41 -0.42,0.4 -0.92,0.71 -1.49,0.92 -0.57,0.22 -1.18,0.33 -1.85,0.33l0.01 -0zm-0.01 -1.68c0.38,0 0.74,-0.07 1.05,-0.2 0.33,-0.13 0.6,-0.32 0.85,-0.57 0.24,-0.25 0.44,-0.54 0.57,-0.87 0.13,-0.33 0.2,-0.7 0.2,-1.11 0,-0.41 -0.07,-0.78 -0.2,-1.11 -0.13,-0.33 -0.32,-0.62 -0.57,-0.87 -0.24,-0.25 -0.53,-0.44 -0.85,-0.57 -0.32,-0.13 -0.67,-0.2 -1.05,-0.2 -0.38,0 -0.74,0.07 -1.07,0.2 -0.33,0.13 -0.61,0.33 -0.85,0.57 -0.24,0.25 -0.43,0.54 -0.56,0.87 -0.13,0.33 -0.2,0.7 -0.2,1.11 0,0.41 0.07,0.78 0.2,1.11 0.13,0.33 0.32,0.62 0.56,0.87 0.24,0.25 0.52,0.44 0.85,0.57 0.32,0.13 0.68,0.2 1.07,0.2z"/>
     <path fill="white" fill-rule="nonzero" d="M259.19 79.53l0 -8.56 3.71 0c0.77,0 1.43,0.12 1.99,0.37 0.56,0.25 0.98,0.6 1.28,1.07 0.3,0.46 0.45,1.02 0.45,1.65 0,0.64 -0.15,1.2 -0.45,1.66 -0.3,0.46 -0.73,0.82 -1.28,1.07 -0.56,0.25 -1.21,0.38 -1.99,0.38l-2.62 0 0.91 -0.89 0 3.26 -2 0 0 0.01zm2 -3.03l-0.9 -0.94 2.51 0c0.6,0 1.06,-0.13 1.37,-0.39 0.31,-0.26 0.46,-0.63 0.46,-1.1 0,-0.48 -0.16,-0.84 -0.46,-1.1 -0.31,-0.25 -0.77,-0.38 -1.37,-0.38l-2.51 0 0.91 -0.94 0 4.86 -0 -0.01z"/>
     <polygon fill="white" fill-rule="nonzero" points="269.56,79.53 269.56,72.58 266.82,72.58 266.82,70.97 274.28,70.97 274.28,72.58 271.54,72.58 271.54,79.53 269.57,79.53 "/>
     <polygon fill="white" fill-rule="nonzero" points="275.35,79.53 275.35,70.96 277.34,70.96 277.34,79.53 "/>
     <polygon fill="white" fill-rule="nonzero" points="279.35,79.53 279.35,70.96 280.99,70.96 284.64,77 283.76,77 287.34,70.96 288.99,70.96 288.99,79.53 287.15,79.53 287.12,73.82 287.49,73.82 284.61,78.61 283.72,78.61 280.8,73.82 281.2,73.82 281.2,79.53 "/>
     <polygon fill="white" fill-rule="nonzero" points="291.04,79.53 291.04,70.96 293.03,70.96 293.03,79.53 "/>
     <polygon fill="white" fill-rule="nonzero" points="294.5,79.53 294.5,78.24 299.8,71.86 300.04,72.58 294.6,72.58 294.6,70.97 301.8,70.97 301.8,72.25 296.52,78.63 296.27,77.91 301.98,77.91 301.98,79.53 "/>
     <path fill="white" fill-rule="nonzero" d="M302.13 79.53l3.81 -8.56 1.96 0 3.84 8.56 -2.08 0 -3.15 -7.56 0.79 0 -3.14 7.56 -2.03 0zm1.92 -1.83l0.5 -1.5 4.43 0 0.52 1.5 -5.44 0z"/>
     <polygon fill="white" fill-rule="nonzero" points="313.97,79.53 313.97,72.58 311.23,72.58 311.23,70.97 318.69,70.97 318.69,72.58 315.96,72.58 315.96,79.53 313.98,79.53 "/>
     <polygon fill="white" fill-rule="nonzero" points="319.76,79.53 319.76,70.96 321.75,70.96 321.75,79.53 "/>
     <path fill="white" fill-rule="nonzero" d="M327.93 79.67c-0.68,0 -1.3,-0.11 -1.87,-0.33 -0.57,-0.22 -1.07,-0.53 -1.49,-0.93 -0.42,-0.4 -0.75,-0.87 -0.99,-1.4 -0.23,-0.54 -0.35,-1.13 -0.35,-1.76 0,-0.64 0.12,-1.24 0.35,-1.77 0.23,-0.53 0.56,-1 0.99,-1.4 0.42,-0.4 0.92,-0.71 1.49,-0.93 0.57,-0.22 1.19,-0.33 1.86,-0.33 0.67,0 1.3,0.11 1.86,0.32 0.57,0.21 1.06,0.52 1.48,0.92 0.42,0.4 0.75,0.87 0.99,1.4 0.23,0.54 0.35,1.13 0.35,1.78 0,0.64 -0.12,1.22 -0.35,1.77 -0.23,0.54 -0.56,1.02 -0.99,1.41 -0.42,0.4 -0.92,0.71 -1.48,0.92 -0.57,0.22 -1.18,0.33 -1.85,0.33l0.01 -0zm-0.01 -1.68c0.38,0 0.74,-0.07 1.06,-0.2 0.32,-0.13 0.6,-0.32 0.85,-0.57 0.24,-0.25 0.44,-0.54 0.57,-0.87 0.13,-0.33 0.2,-0.7 0.2,-1.11 0,-0.41 -0.07,-0.78 -0.2,-1.11 -0.13,-0.33 -0.32,-0.62 -0.57,-0.87 -0.24,-0.25 -0.53,-0.44 -0.85,-0.57 -0.32,-0.13 -0.67,-0.2 -1.06,-0.2 -0.38,0 -0.74,0.07 -1.07,0.2 -0.32,0.13 -0.61,0.33 -0.85,0.57 -0.24,0.25 -0.43,0.54 -0.56,0.87 -0.13,0.33 -0.2,0.7 -0.2,1.11 0,0.41 0.07,0.78 0.2,1.11 0.13,0.33 0.32,0.62 0.56,0.87 0.24,0.25 0.52,0.44 0.85,0.57 0.32,0.13 0.68,0.2 1.07,0.2z"/>
     <polygon fill="white" fill-rule="nonzero" points="334.09,79.53 334.09,70.96 335.73,70.96 340.78,77.13 339.98,77.13 339.98,70.96 341.94,70.96 341.94,79.53 340.3,79.53 335.24,73.36 336.04,73.36 336.04,79.53 334.08,79.53 "/>
    </g>
   </g>
  </g>
 </g>
</svg>
