<?xml version="1.0" encoding="UTF-8"?>
<!DOCTYPE svg PUBLIC "-//W3C//DTD SVG 1.0//EN" "http://www.w3.org/TR/2001/REC-SVG-20010904/DTD/svg10.dtd">
<!-- Creator: CorelDRAW X7 -->
<svg xmlns="http://www.w3.org/2000/svg" xml:space="preserve" width="90px" height="45px" version="1.0" style="shape-rendering:geometricPrecision; text-rendering:geometricPrecision; image-rendering:optimizeQuality; fill-rule:evenodd; clip-rule:evenodd"
viewBox="0 0 100 50"
 xmlns:xlink="http://www.w3.org/1999/xlink">
 <defs>
  <style type="text/css">
   <![CDATA[
    .fil0 {fill:#136EB7}
    .fil1 {fill:#F3BA2B}
   ]]>
  </style>
 </defs>
 <g id="Layer_x0020_1">
  <metadata id="CorelCorpID_0Corel-Layer"/>
  <g id="_1940024335904">
   <path class="fil0" d="M50 19c-1,0 -1,-1 -2,-1 0,-1 0,-2 -1,-2 -1,-2 -2,-3 -2,-4 -1,-1 -2,-3 -3,-4 0,0 -1,-1 -1,-2 -1,0 -1,-1 -1,-2 0,0 1,0 2,0 0,0 1,0 2,0l5 8c1,2 1,1 5,-5l4 -5c0,-1 1,-1 0,-2 -1,0 -19,0 -21,0 -6,0 -5,0 -2,4 4,6 8,13 13,19 2,4 2,4 4,0l13 -19c1,-1 2,-3 2,-3 0,-1 -1,-1 -2,-1 -2,0 -1,0 -4,4 -2,2 -10,15 -11,15z"/>
   <path class="fil0" d="M90 43c1,-1 0,-5 0,-6 1,-2 1,-4 3,-4 3,0 3,2 3,4 0,1 0,5 0,6 1,0 3,0 4,0 0,-1 0,-5 0,-6 0,-2 0,-3 -1,-5 -1,-1 -2,-2 -4,-2 -3,0 -4,1 -4,1l-1 -5c0,0 -3,2 -3,2 0,1 0,14 0,15 0,0 3,0 3,0z"/>
   <path class="fil0" d="M39 35c0,0 0,-1 1,-2 2,-2 6,1 5,2 -1,0 -5,0 -6,0zm9 3c1,-2 1,-7 -5,-8 -9,-1 -11,11 -3,13 2,0 4,0 6,-1 1,0 2,-1 1,-1 0,-1 -1,-2 -1,-2 -1,0 -1,1 -2,1 -3,1 -5,-1 -5,-2 2,-1 8,0 9,0z"/>
   <path class="fil0" d="M62 35c-1,-1 2,-4 5,-1 0,0 1,1 1,1 0,1 -2,0 -2,0 -1,0 -4,0 -4,0zm9 3c1,-2 0,-4 -1,-5 -1,-2 -2,-2 -3,-3 -9,-2 -12,9 -6,12 2,1 7,2 9,-1 0,0 -2,-2 -2,-2 0,0 -1,1 -4,1 -1,0 -3,-1 -2,-2l9 0z"/>
   <path class="fil0" d="M19 30c-1,0 -2,0 -3,0 -1,0 -1,0 -1,2 0,1 0,3 0,5 0,8 10,8 13,3 0,-1 0,-3 0,-5 0,-6 1,-5 -2,-5 0,0 -1,0 -1,0 -1,1 0,6 0,7 0,2 -1,3 -3,3 -3,0 -3,-2 -3,-4 0,-1 0,-5 0,-6z"/>
   <path class="fil0" d="M83 38c-1,1 -1,1 -2,2 -1,0 -2,0 -2,0 -2,-1 -3,-2 -3,-3 0,-4 5,-5 6,-2 1,0 3,-1 3,-2 0,-2 -4,-4 -7,-3 -7,2 -7,11 -1,13 4,1 8,-1 8,-3 0,0 -2,-2 -2,-2z"/>
   <path class="fil0" d="M7 39c-1,-1 -3,-8 -4,-9l-3 0c0,1 2,6 2,7 1,2 2,4 3,6l4 0c0,-1 2,-5 3,-6 0,-1 2,-6 2,-7l-3 0c-1,1 -2,3 -2,4 0,1 -1,4 -2,5z"/>
   <path class="fil0" d="M57 40c-1,0 -2,1 -3,0 -1,-1 0,-2 0,-3 0,-5 -1,-3 3,-4 0,0 0,-2 0,-3 -1,0 -3,1 -3,0 -1,0 0,-3 0,-4 -1,0 -2,1 -3,1 -1,1 -1,1 -1,3 0,2 0,4 0,7 0,2 0,4 2,5 1,1 4,1 6,0 0,0 -1,-1 -1,-2z"/>
   <path class="fil0" d="M30 29c0,1 0,13 0,14 0,0 3,0 4,0 0,-1 0,-15 0,-17 -1,0 -2,1 -2,1 -1,1 -2,1 -2,2z"/>
   <polygon class="fil1" points="83,47 85,47 85,47 84,47 84,48 85,48 85,49 84,49 84,49 85,49 85,50 83,50 "/>
   <path class="fil1" d="M79 47l1 0 0 2c0,0 0,0 0,0 0,0 0,1 1,1 0,0 0,-1 0,-1 0,0 0,0 0,0l0 -2 1 0 0 2c0,0 0,1 0,1 -1,0 -1,0 -1,0 -1,0 -1,0 -1,0 -1,0 -1,-1 -1,-1l0 -2z"/>
   <polygon class="fil1" points="77,47 78,47 78,49 79,49 79,50 77,50 "/>
   <path class="fil1" d="M74 47l1 0 1 3 -1 0 0 -1 -1 0 0 1 -1 0 1 -3zm1 1l-1 1 1 0 0 -1z"/>
   <polygon class="fil1" points="70,47 71,47 71,49 72,47 73,47 72,50 71,50 "/>
   <path class="fil1" d="M65 47l2 0c0,0 1,0 1,0 0,0 0,0 0,1 0,0 0,0 0,0 0,0 0,0 -1,0 1,1 1,1 1,1l0 0 0 1 -1 0 0 -1c0,0 0,0 0,0 0,0 0,0 -1,0l0 0 0 1 -1 0 0 -3zm1 0l0 1 1 0c0,0 0,0 0,0 0,0 0,0 0,0 0,0 0,0 0,-1 0,0 0,0 0,0l-1 0z"/>
   <path class="fil1" d="M62 47l1 0 0 2c0,0 0,0 0,0 0,0 0,1 0,1 1,0 1,-1 1,-1 0,0 0,0 0,0l0 -2 1 0 0 2c0,0 0,1 -1,1 0,0 0,0 -1,0 0,0 0,0 -1,0 0,0 0,-1 0,-1l0 -2z"/>
   <path class="fil1" d="M60 47c0,0 1,0 1,0 0,0 0,1 0,1 0,1 0,1 0,2 0,0 -1,0 -1,0 -1,0 -1,0 -1,0 -1,-1 -1,-1 -1,-2 0,0 0,-1 1,-1 0,0 0,0 1,0zm0 0c0,0 -1,0 -1,1 0,0 0,0 0,0 0,1 0,1 0,1 0,0 1,1 1,1 0,0 0,-1 0,-1 0,0 1,0 1,-1 0,0 -1,0 -1,0 0,-1 0,-1 0,-1z"/>
   <polygon class="fil1" points="55,47 56,47 57,48 57,47 58,47 57,49 57,50 56,50 56,49 "/>
   <polygon class="fil1" points="52,48 53,48 53,49 52,49 "/>
   <path class="fil1" d="M47 47l1 0 1 2c0,0 0,0 0,0 0,0 0,0 0,0 0,0 0,0 0,0 0,0 0,0 0,0l0 -2 1 0 0 3 -1 0 -1 -2c0,0 0,0 0,0 0,0 0,-1 0,-1 0,1 0,1 0,1 0,0 0,0 0,0l0 2 -1 0 0 -3z"/>
   <path class="fil1" d="M45 47c0,0 1,0 1,0 0,0 1,1 1,1 0,1 -1,1 -1,2 0,0 -1,0 -1,0 -1,0 -1,0 -1,0 -1,-1 -1,-1 -1,-2 0,0 0,-1 1,-1 0,0 0,0 1,0zm0 0c0,0 -1,0 -1,1 0,0 0,0 0,0 0,1 0,1 0,1 0,0 1,1 1,1 0,0 0,-1 0,-1 1,0 1,0 1,-1 0,0 0,0 -1,0 0,-1 0,-1 0,-1z"/>
   <polygon class="fil1" points="42,47 43,47 43,50 42,50 "/>
   <polygon class="fil1" points="39,47 41,47 41,47 41,47 41,50 40,50 40,47 39,47 "/>
   <path class="fil1" d="M36 47l1 0 0 2c0,0 0,0 0,0 0,0 0,1 0,1 0,0 0,-1 1,-1 0,0 0,0 0,0l0 -2 1 0 0 2c0,0 -1,1 -1,1 0,0 0,0 -1,0 0,0 -1,0 -1,0 0,0 0,-1 0,-1l0 -2z"/>
   <polygon class="fil1" points="33,47 34,47 34,49 35,49 35,50 33,50 "/>
   <path class="fil1" d="M31 47c1,0 1,0 1,0 1,0 1,1 1,1 0,1 0,1 -1,2 0,0 0,0 -1,0 0,0 -1,0 -1,0 0,-1 -1,-1 -1,-2 0,0 1,-1 1,-1 0,0 1,0 1,0zm0 0c0,0 0,0 -1,1 0,0 0,0 0,0 0,1 0,1 0,1 1,0 1,1 1,1 0,0 0,-1 1,-1 0,0 0,0 0,-1 0,0 0,0 0,0 -1,-1 -1,-1 -1,-1z"/>
   <path class="fil1" d="M29 47l0 1c0,-1 -1,-1 -1,-1 0,0 0,0 0,0 0,0 0,0 0,0 -1,0 -1,1 -1,1 0,0 0,0 1,0 0,0 0,0 0,0 0,0 0,0 0,0 0,0 1,0 1,0 0,0 0,1 0,1 0,0 0,0 0,0 0,0 0,1 0,1 -1,0 -1,0 -1,0 -1,0 -1,0 -1,0 0,0 0,0 0,0l0 -1c0,0 0,0 0,0 0,0 0,1 1,1 0,0 0,-1 0,-1 0,0 0,0 0,0 0,0 0,0 0,0 0,0 -1,0 -1,0 0,0 0,-1 0,-1 0,0 0,0 0,0 0,-1 0,-1 0,-1 0,0 0,0 1,0 0,0 0,0 0,0 1,0 1,0 1,0z"/>
   <path class="fil1" d="M22 47l1 0c1,0 1,0 1,0 1,0 1,0 1,1 0,0 0,0 -1,0 0,0 0,0 0,0 0,1 0,1 0,1l0 0 1 1 -1 0 0 -1c0,0 -1,0 -1,0 0,0 0,0 0,0l0 0 0 1 -1 0 0 -3zm1 0l0 1 0 0c0,0 1,0 1,0 0,0 0,0 0,0 0,0 0,0 0,-1 -1,0 -1,0 -1,0l0 0z"/>
   <path class="fil1" d="M19 47l0 0 0 2c0,0 0,0 1,0 0,0 0,1 0,1 0,0 0,-1 0,-1 0,0 1,0 1,0l0 -2 0 0 0 2c0,0 0,1 0,1 0,0 -1,0 -1,0 -1,0 -1,0 -1,0 0,0 0,-1 0,-1l0 -2z"/>
   <path class="fil1" d="M16 47c1,0 1,0 2,0 0,0 0,1 0,1 0,1 0,1 0,2 -1,0 -1,0 -2,0 0,0 -1,0 -1,0 0,-1 0,-1 0,-2 0,0 0,-1 0,-1 0,0 1,0 1,0zm0 0c0,0 0,0 0,1 0,0 0,0 0,0 0,1 0,1 0,1 0,0 0,1 0,1 1,0 1,-1 1,-1 0,0 0,0 0,-1 0,0 0,0 0,0 0,-1 0,-1 -1,-1z"/>
  </g>
 </g>
</svg>
