<?xml version="1.0" encoding="UTF-8"?>
<!DOCTYPE svg PUBLIC "-//W3C//DTD SVG 1.0//EN" "http://www.w3.org/TR/2001/REC-SVG-20010904/DTD/svg10.dtd">
<!-- Creator: CorelDRAW X7 -->
<svg xmlns="http://www.w3.org/2000/svg" xml:space="preserve" width="289px" height="145px" version="1.0" style="shape-rendering:geometricPrecision; text-rendering:geometricPrecision; image-rendering:optimizeQuality; fill-rule:evenodd; clip-rule:evenodd"
viewBox="0 0 980 492"
 xmlns:xlink="http://www.w3.org/1999/xlink">
 <defs>
  <style type="text/css">
   <![CDATA[
    .fil0 {fill:#136EB7}
    .fil1 {fill:#F3BA2B}
   ]]>
  </style>
 </defs>
 <g id="Layer_x0020_1">
  <metadata id="CorelCorpID_0Corel-Layer"/>
  <g id="_1706541805984">
   <path class="fil0" d="M492 188c-9,1 -12,-8 -16,-14 -5,-6 -9,-13 -13,-19 -9,-13 -17,-25 -26,-38 -8,-12 -17,-26 -25,-37 -5,-5 -9,-12 -13,-18 -4,-6 -11,-13 -11,-21 5,-6 11,-4 19,-4 7,0 17,-2 21,4l50 72c15,23 15,13 56,-49l32 -46c3,-5 10,-12 2,-16 -5,-3 -184,-2 -206,-2 -54,0 -52,-2 -22,40 42,60 84,126 126,186 26,36 21,39 47,-1l126 -185c4,-6 20,-26 20,-32 1,-10 -11,-8 -18,-8 -26,1 -16,-3 -43,35 -15,21 -100,149 -106,153z"/>
   <path class="fil0" d="M887 420c2,-5 1,-50 1,-60 0,-19 7,-34 28,-35 24,-1 27,15 27,35 0,10 -2,55 1,61 5,1 29,1 35,0 2,-8 1,-47 1,-58 0,-17 1,-34 -9,-49 -8,-12 -22,-20 -37,-21 -31,-2 -37,11 -46,12l0 -51c-7,-1 -36,25 -36,25 -2,9 -2,138 0,142 5,1 31,2 35,-1z"/>
   <path class="fil0" d="M382 347c-2,-7 4,-14 9,-19 25,-22 56,10 49,18 -3,2 -52,2 -58,1zm93 21c6,-11 1,-66 -53,-74 -90,-13 -106,112 -27,127 18,4 40,3 57,-5 5,-3 18,-10 12,-17 -2,-4 -12,-15 -16,-16 -4,1 -10,7 -17,9 -27,8 -53,-11 -48,-22 16,-5 80,3 92,-2z"/>
   <path class="fil0" d="M605 347c-7,-14 26,-39 50,-18 3,3 8,10 8,14 1,6 -11,4 -17,4 -8,0 -35,1 -41,0zm92 22c6,-12 -2,-38 -9,-49 -8,-12 -21,-21 -35,-24 -82,-22 -118,83 -56,117 24,14 75,16 91,-9 2,-6 -17,-21 -18,-21 -4,0 -14,14 -39,10 -11,-2 -28,-11 -26,-24l92 0z"/>
   <path class="fil0" d="M186 294c-8,0 -18,0 -27,0 -12,0 -8,4 -8,17 0,17 0,35 0,52 0,75 98,75 121,30 7,-15 6,-29 6,-46 0,-60 6,-53 -18,-53 -6,0 -15,-1 -18,2 -3,5 -1,52 -1,63 0,19 -5,35 -28,34 -22,-1 -25,-19 -25,-38 0,-10 2,-55 -2,-61z"/>
   <path class="fil0" d="M811 377c-6,5 -7,9 -16,13 -7,4 -16,4 -23,2 -15,-5 -22,-18 -23,-33 0,-39 46,-47 60,-19 7,0 23,-10 29,-14 -1,-20 -42,-41 -77,-30 -69,20 -63,107 -1,125 33,9 74,-7 78,-29 -3,-4 -23,-14 -27,-15z"/>
   <path class="fil0" d="M70 378c-7,-5 -27,-76 -36,-83l-34 0c-2,7 20,55 24,64 9,21 18,42 26,62l37 0c5,-4 23,-52 28,-62 3,-9 27,-58 23,-64l-31 0c-5,6 -15,33 -19,42 -3,9 -13,35 -18,41z"/>
   <path class="fil0" d="M558 391c-9,0 -19,7 -27,-1 -6,-7 -5,-21 -5,-29 0,-47 -6,-30 31,-35 1,-6 2,-23 -1,-27 -7,-3 -22,1 -28,-2 -3,-6 -1,-35 -2,-43 -6,0 -16,10 -22,14 -11,9 -14,7 -14,22 0,24 0,48 0,72 0,21 -2,41 17,54 14,9 46,10 59,0 0,-7 -6,-18 -8,-25z"/>
   <path class="fil0" d="M294 280c-1,12 -1,137 0,140 4,2 30,2 35,1 3,-6 1,-148 1,-167 -7,1 -14,8 -19,12 -6,5 -13,9 -17,14z"/>
   <polygon class="fil1" points="811,459 833,459 833,465 820,465 820,472 833,472 833,478 820,478 820,485 834,485 834,492 811,492 "/>
   <path class="fil1" d="M777 459l8 0 0 19c0,3 1,5 2,6 1,1 2,2 4,2 2,0 3,-1 4,-2 1,-1 1,-3 1,-6l0 -19 9 0 0 19c0,5 -2,8 -4,11 -2,2 -6,3 -10,3 -5,0 -8,-1 -11,-3 -2,-3 -3,-6 -3,-11l0 -19z"/>
   <polygon class="fil1" points="752,459 761,459 761,485 774,485 774,492 752,492 "/>
   <path class="fil1" d="M727 459l11 0 12 33 -9 0 -3 -7 -12 0 -3 7 -8 0 12 -33zm5 7l-4 12 8 0 -4 -12z"/>
   <polygon class="fil1" points="685,459 694,459 701,484 708,459 717,459 706,492 695,492 "/>
   <path class="fil1" d="M642 459l13 0c4,0 8,1 10,2 2,1 3,4 3,6 0,3 -1,4 -2,6 -1,1 -3,2 -5,2 2,1 3,3 4,6l0 0 4 11 -9 0 -3 -9c0,-2 -1,-3 -1,-3 -1,-1 -3,-1 -4,-1l-1 0 0 13 -9 0 0 -33zm9 6l0 8 3 0c1,0 3,0 4,-1 1,-1 1,-2 1,-3 0,-1 0,-3 -1,-3 -1,-1 -3,-1 -5,-1l-2 0z"/>
   <path class="fil1" d="M608 459l9 0 0 19c0,3 0,5 1,6 1,1 2,2 4,2 2,0 3,-1 4,-2 1,-1 2,-3 2,-6l0 -19 8 0 0 19c0,5 -1,8 -4,11 -2,2 -5,3 -10,3 -5,0 -8,-1 -10,-3 -3,-3 -4,-6 -4,-11l0 -19z"/>
   <path class="fil1" d="M587 458c5,0 9,2 12,5 3,3 4,7 4,12 0,6 -1,10 -4,13 -3,3 -7,4 -12,4 -5,0 -9,-1 -12,-4 -3,-3 -4,-7 -4,-13 0,-5 1,-9 4,-12 3,-3 7,-5 12,-5zm0 7c-2,0 -4,1 -6,2 -1,2 -2,5 -2,8 0,3 1,6 2,8 2,2 4,3 6,3 2,0 4,-1 5,-3 2,-2 2,-5 2,-8 0,-3 0,-6 -2,-8 -1,-1 -3,-2 -5,-2z"/>
   <polygon class="fil1" points="539,459 548,459 555,473 561,459 571,459 559,479 559,492 550,492 550,479 "/>
   <polygon class="fil1" points="511,475 524,475 524,481 511,481 "/>
   <path class="fil1" d="M462 459l11 0 9 20c1,0 1,1 1,2 1,1 1,3 2,5 0,-2 -1,-3 -1,-5 0,-1 0,-2 0,-4l0 -18 8 0 0 33 -11 0 -10 -21c0,-1 -1,-2 -1,-3 0,-1 -1,-2 -1,-3 0,2 0,3 1,5 0,2 0,3 0,4l0 18 -8 0 0 -33z"/>
   <path class="fil1" d="M441 458c5,0 9,2 12,5 2,3 4,7 4,12 0,6 -2,10 -4,13 -3,3 -7,4 -12,4 -5,0 -9,-1 -12,-4 -3,-3 -5,-7 -5,-13 0,-5 2,-9 5,-12 3,-3 7,-5 12,-5zm0 7c-3,0 -4,1 -6,2 -1,2 -2,5 -2,8 0,3 1,6 2,8 2,2 3,3 6,3 2,0 4,-1 5,-3 1,-2 2,-5 2,-8 0,-3 -1,-6 -2,-8 -1,-1 -3,-2 -5,-2z"/>
   <polygon class="fil1" points="411,459 419,459 419,492 411,492 "/>
   <polygon class="fil1" points="382,459 407,459 407,466 399,466 399,492 390,492 390,466 382,466 "/>
   <path class="fil1" d="M351 459l8 0 0 19c0,3 1,5 2,6 0,1 2,2 4,2 1,0 3,-1 4,-2 1,-1 1,-3 1,-6l0 -19 8 0 0 19c0,5 -1,8 -3,11 -2,2 -6,3 -10,3 -5,0 -9,-1 -11,-3 -2,-3 -3,-6 -3,-11l0 -19z"/>
   <polygon class="fil1" points="326,459 334,459 334,485 347,485 347,492 326,492 "/>
   <path class="fil1" d="M304 458c5,0 9,2 12,5 3,3 5,7 5,12 0,6 -2,10 -5,13 -3,3 -7,4 -12,4 -5,0 -9,-1 -12,-4 -2,-3 -4,-7 -4,-13 0,-5 2,-9 4,-12 3,-3 7,-5 12,-5zm0 7c-2,0 -4,1 -5,2 -1,2 -2,5 -2,8 0,3 1,6 2,8 1,2 3,3 5,3 3,0 4,-1 6,-3 1,-2 2,-5 2,-8 0,-3 -1,-6 -2,-8 -2,-1 -3,-2 -6,-2z"/>
   <path class="fil1" d="M283 459l-1 7c-1,0 -2,-1 -4,-1 -1,0 -2,-1 -3,-1 -2,0 -3,1 -4,1 -1,1 -2,2 -2,3 0,0 0,1 1,1 0,1 1,1 2,2 1,0 1,0 2,0 3,1 6,2 7,3 1,1 2,2 3,3 0,1 0,3 0,4 0,4 -1,7 -3,9 -3,1 -6,2 -11,2 -1,0 -3,0 -4,0 -2,0 -4,-1 -5,-1l0 -7c2,0 3,1 5,1 1,1 3,1 4,1 2,0 3,-1 4,-1 1,-1 1,-2 1,-3 0,-1 -1,-2 -4,-3 -1,-1 -2,-1 -2,-1 -3,-1 -5,-2 -7,-4 -1,-1 -2,-3 -2,-6 0,-3 1,-5 4,-7 2,-2 6,-3 10,-3 1,0 3,0 5,0 1,1 2,1 4,1z"/>
   <path class="fil1" d="M216 459l13 0c4,0 7,1 9,2 2,1 3,4 3,6 0,3 0,4 -1,6 -1,1 -3,2 -5,2 2,1 3,3 4,6l0 0 4 11 -9 0 -3 -9c0,-2 -1,-3 -2,-3 -1,-1 -2,-1 -3,-1l-2 0 0 13 -8 0 0 -33zm8 6l0 8 3 0c2,0 4,0 5,-1 1,-1 1,-2 1,-3 0,-1 -1,-3 -2,-3 -1,-1 -2,-1 -5,-1l-2 0z"/>
   <path class="fil1" d="M182 459l8 0 0 19c0,3 1,5 2,6 1,1 2,2 4,2 2,0 3,-1 4,-2 1,-1 1,-3 1,-6l0 -19 9 0 0 19c0,5 -2,8 -4,11 -2,2 -6,3 -10,3 -5,0 -8,-1 -11,-3 -2,-3 -3,-6 -3,-11l0 -19z"/>
   <path class="fil1" d="M161 458c5,0 9,2 11,5 3,3 5,7 5,12 0,6 -2,10 -5,13 -2,3 -6,4 -11,4 -6,0 -9,-1 -12,-4 -3,-3 -5,-7 -5,-13 0,-5 2,-9 5,-12 3,-3 7,-5 12,-5zm0 7c-3,0 -4,1 -6,2 -1,2 -2,5 -2,8 0,3 1,6 2,8 2,2 3,3 6,3 2,0 4,-1 5,-3 1,-2 2,-5 2,-8 0,-3 -1,-6 -2,-8 -1,-1 -3,-2 -5,-2z"/>
  </g>
 </g>
</svg>
